<?xml version="1.0" encoding="utf-8"?>
<!DOCTYPE svg PUBLIC "-//W3C//DTD SVG 1.0//EN" "http://www.w3.org/TR/2001/REC-SVG-20010904/DTD/svg10.dtd">
<svg version="1.0" xmlns="http://www.w3.org/2000/svg" width="256px" height="256px" viewBox="0 0 256 256" preserveAspectRatio="xMidYMid meet">
 <g fill="#030202">
  <path d="M125 248.70 c-1.38 -0.70 -2.60 -2.42 -3 -4.25 -0.15 -0.73 -0.38 -2.50 -0.52 -3.95 -0.30 -3.15 -0.57 -3.83 -4.32 -10.20 -5.03 -8.55 -6.22 -11.75 -6.65 -17.92 -0.13 -1.92 -0.25 -3.90 -0.25 -4.40 0 -0.68 -0.43 -1.55 -1.75 -3.63 -2.35 -3.65 -5.10 -9.23 -5.85 -11.88 -0.35 -1.17 -0.70 -2.97 -0.80 -3.95 -0.15 -1.70 -0.20 -1.80 -0.70 -1.65 -0.28 0.10 -0.80 0.20 -1.15 0.22 -0.55 0.03 -0.63 -0.10 -0.70 -0.93 -0.05 -0.60 0.15 -1.42 0.55 -2.33 0.35 -0.77 0.65 -1.45 0.65 -1.48 0 -0.05 -0.38 -0.15 -0.82 -0.22 -0.93 -0.17 -2.67 -1.50 -2.67 -2.05 0 -0.35 0.17 -0.45 1.95 -1.10 0.43 -0.17 0.80 -0.38 0.80 -0.47 0 -0.08 -0.82 -0.43 -1.83 -0.73 -1.92 -0.60 -3.50 -1.50 -3.75 -2.17 -0.13 -0.25 0.15 -0.57 0.82 -1.02 0.55 -0.38 1 -0.75 1 -0.88 0 -0.10 -0.82 -0.60 -1.85 -1.08 -2.50 -1.20 -4.57 -3.28 -5.72 -5.70 -1.27 -2.65 -1.52 -4.07 -1.35 -7.97 0.15 -3.75 0.52 -5.47 1.20 -5.65 0.30 -0.10 0.47 -0.47 0.60 -1.40 0.40 -3.05 2.95 -8.93 3.88 -8.93 0.45 0 0.50 0.17 0.50 1.58 0 3.35 1.40 6.57 4 9.20 1.48 1.48 4.03 3.17 5.43 3.58 0.47 0.15 0.57 0.03 0.95 -1.27 0.57 -1.92 0.40 -3.28 -0.98 -8.07 -1.65 -5.82 -2 -8.13 -2 -13.38 0 -6.63 0.82 -9.23 3.95 -12.55 0.80 -0.88 1.38 -1.58 1.27 -1.58 -0.08 0 -1.30 0.30 -2.70 0.68 -2.05 0.52 -3.13 0.68 -5.55 0.68 -3.45 0.03 -5.50 -0.47 -7.93 -1.95 l-1.42 -0.85 -6.45 -0.10 c-5.63 -0.10 -6.70 -0.20 -8.45 -0.68 -2.42 -0.65 -4.22 -1.50 -4.32 -2.05 -0.10 -0.55 3.58 -5.97 5.72 -8.45 l1.67 -1.92 -3.42 0 c-3.10 0 -3.58 -0.05 -5.40 -0.68 -2.28 -0.80 -4.15 -1.83 -5.60 -3.03 -0.85 -0.70 -1.25 -0.85 -2.78 -1 -0.98 -0.10 -2.63 -0.40 -3.67 -0.68 -3.03 -0.80 -7.75 -3.33 -7.50 -4.05 0.05 -0.15 0.82 -0.73 1.75 -1.27 2.40 -1.48 4.57 -3.28 5.45 -4.57 0.70 -1 4.22 -7.05 4.22 -7.22 0 -0.35 -3.72 1.42 -6.43 3.05 -1.95 1.20 -2.28 1.30 -2.47 0.73 -0.20 -0.47 0.95 -1.92 3.97 -5.05 2.30 -2.35 2.72 -3.08 1.77 -3.08 -0.20 0 -1.05 -0.35 -1.90 -0.77 -2.55 -1.30 -4.47 -3.65 -5.93 -7.22 -0.43 -1.05 -0.82 -1.55 -1.67 -2.13 -1.35 -0.93 -2.63 -2.58 -3.75 -4.88 -1.10 -2.20 -1.35 -3.50 -0.73 -3.50 0.22 0 0.75 0.28 1.15 0.60 1.75 1.50 5.70 2.25 8.55 1.65 2.33 -0.47 4.68 -1.80 6.35 -3.58 1.75 -1.88 3 -4.20 5.05 -9.38 0.82 -2.08 1.80 -4.30 2.17 -4.93 0.45 -0.77 0.55 -1.13 0.30 -1.13 -0.55 0 -3.28 1.38 -4.13 2.10 -0.85 0.70 -1.33 0.68 -1.33 -0.05 0 -0.85 1.90 -3.63 3.53 -5.18 1.80 -1.67 3.75 -2.90 5.78 -3.63 0.73 -0.25 1.35 -0.55 1.38 -0.68 0.05 -0.10 -0.43 -0.52 -1.05 -0.93 -4.10 -2.58 -4.72 -8.50 -1.65 -15.32 1.05 -2.33 1.63 -2.97 2.03 -2.33 0.13 0.20 0.25 0.60 0.25 0.90 0 0.28 0.17 1.13 0.40 1.88 0.82 2.75 3.22 4.22 6.97 4.22 3.78 0 5.28 -0.73 13.63 -6.50 5.93 -4.10 9.02 -5.85 12.25 -6.90 1.85 -0.57 2.55 -0.68 5.38 -0.70 3.80 0 6.18 0.45 9.35 1.77 1.90 0.82 2.17 0.88 2.65 0.55 0.30 -0.20 1.25 -0.82 2.13 -1.40 3.20 -2.17 6.60 -2.95 11.88 -2.75 6.35 0.25 11.23 2.10 22.75 8.68 7.30 4.15 8.63 4.60 13.05 4.45 2.53 -0.08 3.15 -0.17 4.32 -0.73 1.77 -0.82 3.10 -2 4.18 -3.67 0.57 -0.88 1 -1.30 1.27 -1.25 1.13 0.22 1.38 7.15 0.35 10 l-0.52 1.42 0.93 0.15 c2.95 0.45 6.45 1.90 7.95 3.28 1.15 1.08 0.60 1.27 -3.90 1.38 -2.17 0.05 -4.05 0.20 -4.18 0.32 -0.10 0.10 0.08 0.40 0.43 0.63 3.30 2.20 6.95 5.65 8.63 8.15 0.52 0.82 1.30 2.45 1.73 3.63 0.70 1.95 0.77 2.38 0.77 5.50 0 2.47 -0.13 3.85 -0.47 5.18 -0.25 1 -0.40 1.98 -0.32 2.17 0.22 0.60 3.25 2.40 4.93 2.92 1.85 0.57 4.53 0.68 6.25 0.22 0.63 -0.15 2 -0.80 3.05 -1.42 1.08 -0.60 2.08 -1.02 2.22 -0.95 0.90 0.57 -1.02 4.75 -3.40 7.32 -1.08 1.15 -1.67 2.08 -1.98 2.97 -1.65 5.03 -7.65 9.75 -12.48 9.85 -0.85 0.03 -1.63 0.08 -1.73 0.13 -0.20 0.13 3.72 6.45 5.20 8.38 2.08 2.72 4.25 4.15 7.55 4.97 0.90 0.22 1.08 0.38 1 0.82 -0.17 1.30 -5.68 4.63 -9.20 5.60 -0.95 0.25 -2.25 0.88 -3.13 1.48 -2.95 2.05 -6.25 3.35 -8.52 3.35 -1.42 0 -1.75 0.30 -0.85 0.85 1.38 0.80 0.75 1.48 -2 2.17 -2.05 0.52 -7.50 0.45 -9.35 -0.10 -0.80 -0.25 -1.50 -0.40 -1.58 -0.32 -0.08 0.08 1.17 1.48 2.78 3.10 2.70 2.75 2.90 3.03 2.53 3.40 -0.93 0.90 -5.32 1.67 -8.45 1.45 -1.33 -0.08 -1.80 -0.03 -2.13 0.28 -0.95 0.88 -2.83 1.45 -5 1.60 l-2.20 0.15 0.35 1.65 c0.50 2.42 0.25 8.25 -0.57 12.40 -0.35 1.80 -0.75 4.10 -0.88 5.13 -0.15 1.02 -0.43 2.38 -0.65 3 l-0.40 1.13 1 2.38 c1.55 3.67 1.63 5 0.28 5 -0.30 0 -0.60 0.32 -0.85 0.95 -0.22 0.50 -0.75 1.27 -1.17 1.73 -0.73 0.75 -0.75 0.88 -0.63 2.10 0.10 0.77 0.68 2.38 1.40 3.95 0.68 1.45 1.60 3.78 2.03 5.15 0.95 3.03 3.45 8 4.50 9 0.40 0.40 1.27 1 1.92 1.35 0.65 0.35 1.23 0.85 1.27 1.10 0.13 0.63 -1.05 1.83 -2.50 2.58 l-1.15 0.57 0.60 1.45 c0.80 1.95 0.80 4.07 -0.03 4.07 -0.17 0 -0.60 -0.22 -0.98 -0.52 -0.35 -0.28 -0.75 -0.45 -0.85 -0.38 -0.13 0.08 -0.30 0.90 -0.38 1.83 -0.32 3.70 -2.38 8.27 -6.47 14.48 l-2.70 4.13 0 2.03 c0 4.28 -1.10 9.13 -3.10 13.65 -0.80 1.85 -1.50 3.17 -5.65 10.75 -1.65 3.05 -1.80 3.42 -1.65 4.35 0.22 1.38 1.02 2.88 2.28 4.22 1.75 1.88 1.70 3.42 -0.10 4.65 -1.13 0.75 -2.25 1 -4.53 0.98 -1.42 -0.03 -2.13 -0.15 -2.95 -0.57 -0.57 -0.32 -1.10 -0.57 -1.15 -0.57 -0.03 0 0.22 1.05 0.55 2.35 1.05 4.05 0.22 5.55 -3.58 6.55 -1.80 0.47 -2.85 0.43 -4.13 -0.20z m2.38 -1.95 c0.08 -0.13 0.60 -0.25 1.15 -0.25 1.40 0 1.92 -0.35 2.22 -1.48 0.22 -0.85 0.13 -1.33 -1.02 -4.68 l-1.27 -3.72 -0.22 -4.88 c-0.25 -5.22 -0.13 -15.07 0.30 -21.75 0.20 -3.13 0.47 -5 1.10 -7.75 2.47 -10.63 2.72 -16.13 0.90 -19.73 -0.80 -1.60 -0.70 -1.55 -6.15 -3.28 -6.15 -1.98 -11.25 -4.90 -14.88 -8.55 l-2 -2.03 -1.23 2.60 c-0.68 1.42 -1.52 3.63 -1.90 4.85 -0.57 1.88 -0.85 2.40 -1.67 3.17 l-1 0.93 0.85 0.08 c0.77 0.08 0.82 0.13 0.90 1.15 0.08 0.88 -0.05 1.23 -0.60 1.88 l-0.68 0.80 0.75 0.08 0.75 0.08 0.17 2.05 c0.20 2.50 0.70 4.75 1.52 6.93 0.90 2.38 3.47 7.32 4.97 9.63 2.03 3.08 1.98 2.88 2.17 7.38 0.30 6.80 1.40 9.93 6.50 18.50 3.70 6.25 4.18 7.35 4.47 10.75 0.15 1.58 0.45 3.47 0.65 4.20 0.57 2.08 2.63 4 3.22 3.05z m9 -8.50 c0.68 0 1.17 0.15 1.40 0.43 0.32 0.35 0.38 0.32 0.47 -0.32 0.10 -0.52 0.30 -0.75 0.70 -0.80 0.52 -0.08 0.50 -0.15 -0.57 -1.35 -1.33 -1.48 -1.88 -3.08 -1.88 -5.38 0 -1.80 0.17 -2.22 3.55 -8.27 3.85 -6.90 5.45 -10.80 6.30 -15.27 0.57 -2.95 0.52 -3.42 -0.22 -3.63 -0.52 -0.13 -0.63 -0.30 -0.63 -1.13 0 -0.55 0.15 -1.10 0.38 -1.27 0.20 -0.17 0.38 -0.50 0.38 -0.75 0 -0.22 0.35 -0.88 0.77 -1.40 1.38 -1.73 4.88 -7.15 6.18 -9.60 1.80 -3.35 2.83 -6.60 2.97 -9.25 0.15 -2.85 0.25 -3.25 0.80 -3.25 0.40 0 0.45 -0.15 0.32 -1.15 -0.10 -0.98 -0.03 -1.23 0.57 -1.85 0.38 -0.38 0.95 -0.77 1.27 -0.85 0.82 -0.22 0.75 -0.45 -0.38 -1.35 -0.60 -0.47 -1.33 -1.50 -1.92 -2.65 -0.55 -1.05 -1.05 -1.90 -1.13 -1.90 -0.08 0 -0.60 0.70 -1.17 1.58 -1.63 2.47 -4.28 5.15 -6.95 7.05 -1.35 0.98 -3.47 2.72 -4.78 3.92 -3.05 2.88 -4.63 3.90 -6.55 4.28 l-1.52 0.30 0 3.92 c0 4.70 -0.45 8.38 -1.65 13.50 -1.23 5.32 -1.55 8.02 -1.88 16.08 -0.43 10.88 -0.05 17.48 1.17 19.30 0.50 0.80 2.70 1.90 2.80 1.42 0.05 -0.22 0.45 -0.35 1.17 -0.35z m0.05 -58 c0.85 -0.43 1.65 -0.93 1.83 -1.13 0.25 -0.30 0.13 -0.32 -0.93 -0.22 -0.65 0.08 -1.90 0.20 -2.75 0.30 l-1.58 0.17 0.50 0.82 c0.60 1 1.02 1 2.92 0.05z m-35.50 -5.22 c0.38 -1.02 0.43 -1.67 0.30 -4.18 -0.15 -2.83 0.03 -7.22 0.40 -10 l0.17 -1.27 -2.05 -1.10 c-3.47 -1.85 -6.13 -4.65 -7.40 -7.78 -0.25 -0.68 -0.55 -1.20 -0.63 -1.20 -0.08 0 -0.35 0.85 -0.60 1.90 -0.35 1.48 -0.40 2.33 -0.25 3.92 0.10 1.13 0.20 2.67 0.22 3.42 l0.03 1.38 -1.05 0.08 c-1.02 0.08 -1.08 0.13 -1.08 0.88 0 1.23 0.68 3.60 1.45 5.03 1.40 2.60 3.35 4.13 7.65 5.88 0.68 0.28 0.70 0.38 0.57 1.42 -0.05 0.63 -0.30 1.33 -0.55 1.60 -0.40 0.45 -0.38 0.47 0.77 0.85 0.68 0.20 1.30 0.38 1.40 0.38 0.10 0.03 0.38 -0.52 0.63 -1.20z m34.08 0.98 c2.80 -0.35 5.43 -1.08 7.32 -2.03 4.25 -2.15 8.27 -6.20 10.52 -10.70 0.63 -1.23 0.68 -1.42 0.40 -2.50 -0.15 -0.63 -0.90 -2.45 -1.70 -4.03 l-1.40 -2.88 -0.10 -4.82 c-0.13 -5.47 0.17 -5 -2.42 -4.03 -1.33 0.50 -8.85 2.40 -12.25 3.08 -1.10 0.22 -3.22 0.68 -4.75 1.02 -3.53 0.77 -7.22 0.82 -10.63 0.13 -1.30 -0.28 -2.45 -0.50 -2.55 -0.50 -0.10 0 -0.17 1.63 -0.13 3.60 l0.05 3.60 -1.50 1.58 c-1.65 1.73 -3.25 3.78 -4.75 6.03 l-0.93 1.42 1.17 1.38 c4.50 5.28 13.52 9.57 20.75 9.88 0.43 0 1.73 -0.10 2.88 -0.22z m-27.75 -13.50 c2.28 -3.22 4.20 -5.68 5.63 -7.20 1.52 -1.65 1.60 -1.95 1.13 -5.05 -0.25 -1.60 -1.73 -7.97 -2.40 -10.30 -0.20 -0.65 -0.35 -1.67 -0.35 -2.30 l0 -1.15 1.38 0 c1.65 0 1.58 -0.13 2.60 4.10 0.47 1.92 0.88 3.13 1.17 3.33 0.38 0.28 0.50 0.13 1.23 -1.63 0.85 -2.08 2.17 -4.75 2.92 -5.85 0.25 -0.35 0.45 -0.85 0.45 -1.13 0 -0.25 -0.52 -3.15 -1.15 -6.45 -0.63 -3.30 -1.30 -7 -1.50 -8.25 -0.28 -1.85 -0.68 -3.40 -1 -3.83 -0.13 -0.17 -5.85 2.85 -7.50 3.95 -5.28 3.58 -7.07 7.13 -7.10 13.88 0 3.75 0.43 6.45 2.03 12.60 1.17 4.53 1.27 5 1.15 7.13 -0.05 1.25 -0.40 3.63 -0.77 5.28 -0.35 1.65 -0.73 4.03 -0.80 5.25 l-0.15 2.25 0.85 -1.38 c0.47 -0.75 1.45 -2.22 2.20 -3.25z m21.30 -16.42 l1.70 -0.38 -0.45 -0.80 c-0.50 -0.90 -5.93 -6.40 -6.32 -6.40 -0.13 0 -1.02 1.60 -1.98 3.55 -1.38 2.83 -1.67 3.60 -1.40 3.75 0.65 0.38 4.53 0.90 5.65 0.80 0.63 -0.08 1.88 -0.30 2.80 -0.52z m7.72 -2.30 c3.13 -0.65 7.40 -1.70 7.72 -1.90 0.13 -0.08 0.25 -0.43 0.25 -0.75 0 -0.70 0.63 -2.80 2.28 -7.55 l1.23 -3.55 -1 -2.53 c-1.23 -3.10 -2.78 -6.18 -3.90 -7.82 -0.90 -1.30 -1.10 -2.50 -0.52 -3.28 0.25 -0.32 0.60 -0.43 1.42 -0.35 1.08 0.08 1.20 0.17 2.45 1.83 1.63 2.17 3 4.90 4.30 8.63 0.77 2.22 1.20 3.03 1.80 3.55 0.57 0.50 0.85 0.63 0.98 0.38 0.40 -0.70 1.05 -5.97 1.05 -8.30 -0.03 -4.53 -1.58 -7.82 -4.60 -9.85 -2.20 -1.48 -7.07 -2.90 -7.90 -2.33 -0.25 0.15 -0.25 0.43 -0.08 1.05 0.38 1.33 0.30 4.63 -0.13 5.65 -0.35 0.85 -0.32 0.95 0.43 2.42 1 1.98 1.27 4.65 0.57 5.43 -0.43 0.47 -0.75 0.50 -3.75 0.45 -2.80 -0.05 -3.40 0 -3.90 0.38 -2.70 1.98 -3.72 2.38 -5.35 2.08 -1.02 -0.20 -1.33 -0.65 -1.88 -2.88 l-0.40 -1.60 -1.98 -0.55 c-1.10 -0.30 -2.20 -0.63 -2.42 -0.75 -0.57 -0.22 -0.57 -0.08 0.05 2.75 0.28 1.25 0.85 4.07 1.25 6.32 l0.75 4.07 3.22 3.13 c1.95 1.88 3.65 3.78 4.28 4.75 0.55 0.88 1.10 1.60 1.23 1.60 0.13 0 1.27 -0.22 2.55 -0.47z m13.98 -4.45 c2.33 -2.08 2.60 -3.40 1.10 -5.18 -0.52 -0.63 -1.02 -1.08 -1.13 -0.95 -0.17 0.17 -1.20 3.10 -2.22 6.35 l-0.43 1.40 0.70 -0.25 c0.40 -0.13 1.30 -0.75 1.98 -1.38z m-18.55 -15.73 c0.73 -0.50 0.70 -0.95 -0.08 -1.30 -1.17 -0.52 -1.35 -0.43 -1.08 0.70 0.30 1.13 0.35 1.15 1.15 0.60z m7.78 -2.30 c-0.35 -1.02 -0.93 -1.08 -0.77 -0.08 0.05 0.43 0.28 0.80 0.52 0.85 0.55 0.13 0.55 0.10 0.25 -0.77z m-39.15 -1.65 c3.58 -0.70 6.97 -1.95 12.35 -4.60 5 -2.45 5.35 -2.67 5.28 -3.25 -0.08 -0.57 -0.28 -0.68 -2.70 -1.20 -1.45 -0.32 -3.45 -0.88 -4.47 -1.23 -1.02 -0.35 -1.90 -0.57 -1.95 -0.55 -0.03 0.05 0.40 0.85 0.95 1.80 0.82 1.45 0.98 1.90 0.93 2.85 l-0.08 1.15 -1.92 0 c-1.77 -0.03 -2.13 -0.13 -3.95 -1.05 l-2 -1.02 0 0.68 c0 1.13 -0.38 1.27 -3.38 1.27 -3.13 0 -6.53 -0.70 -7.07 -1.45 -0.17 -0.22 -0.30 -0.88 -0.25 -1.42 0.08 -0.95 0.10 -1 1.02 -1.08 0.52 -0.05 1.48 0.10 2.13 0.30 0.65 0.22 1.73 0.47 2.40 0.55 1.17 0.17 1.20 0.15 0.93 -0.35 -0.15 -0.28 -0.28 -1.02 -0.28 -1.65 l0 -1.15 1.52 0 c1.20 0 1.98 0.20 3.55 0.88 1.10 0.47 2.03 0.88 2.05 0.88 0.03 0 -0.17 -0.68 -0.47 -1.50 l-0.52 -1.50 -2.75 -0.93 c-6.68 -2.20 -15.15 -5.70 -18.80 -7.72 -2.15 -1.20 -5.03 -3.55 -6.05 -4.95 -0.75 -1 -0.98 -1.15 -1.77 -1.15 -2.83 0 -6.05 -1.30 -7.72 -3.13 -0.95 -1.02 -1.02 -1.23 -1.02 -2.53 l0 -1.40 1.58 0.13 c0.85 0.08 2.08 0.25 2.72 0.43 0.68 0.20 1.25 0.28 1.33 0.22 0.05 -0.08 -0.08 -0.68 -0.30 -1.35 -0.32 -0.98 -0.43 -2.28 -0.43 -5.88 0 -4.22 0.05 -4.85 0.65 -7.15 1.40 -5.25 3.30 -8.85 6.55 -12.30 0.68 -0.73 1.17 -1.33 1.13 -1.38 -3.17 -2.03 -5.30 -4.15 -6.43 -6.40 -0.63 -1.30 -0.68 -1.63 -0.68 -4.53 0 -2.90 0.05 -3.22 0.68 -4.38 1.33 -2.53 3.05 -3.90 8.07 -6.45 2.40 -1.23 4.03 -2.28 6.22 -4.05 4.53 -3.67 8.15 -5.90 11.77 -7.25 1.92 -0.73 4.70 -0.85 5.85 -0.25 2.63 1.35 3.92 6.22 3.70 13.75 -0.08 2.20 -0.32 4.95 -0.55 6.13 -1.02 5.25 -2.97 9.38 -4.88 10.30 -0.82 0.43 -0.88 0.52 -1.02 2 -0.10 0.88 -0.47 2.53 -0.82 3.67 -0.60 1.92 -1.40 5.57 -1.73 7.82 l-0.15 0.93 1.42 -0.63 c0.77 -0.35 1.63 -0.88 1.85 -1.17 0.45 -0.57 1.42 -3 2 -4.93 l0.32 -1.13 1.25 0 1.25 0 -0.05 2.08 c-0.03 1.88 0 2.08 0.38 1.92 1.58 -0.65 7.55 -2.88 7.75 -2.88 0.13 0 0.30 -0.55 0.38 -1.23 0.17 -1.48 0.50 -2.08 1.50 -2.65 1.13 -0.68 4 -0.80 5.43 -0.22 1.45 0.55 2.05 0.52 7.13 -0.45 l4.25 -0.82 0.65 -2 c0.38 -1.10 0.80 -2.95 0.98 -4.13 0.57 -4.10 0.45 -3.88 2 -3.88 1.38 0 1.38 0 1.90 1.05 0.45 0.85 1.45 4.53 2 7.25 0.10 0.50 0.28 0.57 1.30 0.57 1.75 0 3.05 -0.28 3.05 -0.63 0 -0.50 1.60 -1.77 2.63 -2.13 0.52 -0.17 1.67 -0.25 2.65 -0.20 2.28 0.13 3 0.75 3.17 2.80 0.10 1.27 0.17 1.42 0.77 1.58 0.35 0.08 1.80 0.45 3.22 0.82 1.40 0.38 2.55 0.57 2.55 0.47 0 -0.65 -1.75 -5.22 -2.80 -7.30 -1.02 -2.08 -1.23 -2.65 -1.15 -3.63 0.08 -1.08 0.13 -1.17 0.80 -1.25 1.45 -0.17 1.80 0.10 2.97 2.38 3.22 6.32 5.57 15.77 5.85 23.60 0.22 6.10 -0.52 10.85 -2.38 15.40 -0.60 1.45 -0.65 1.77 -0.32 1.58 0.50 -0.25 2.10 -1.95 3.13 -3.30 0.60 -0.82 0.85 -0.95 1.67 -0.95 l0.98 0 0 1.10 c0 1.08 -0.43 2.05 -2.13 5.03 l-0.73 1.25 0.90 -0.68 c0.50 -0.40 1.08 -0.70 1.27 -0.70 0.20 0 0.43 -0.17 0.52 -0.38 0.08 -0.22 0.68 -0.60 1.33 -0.88 4.93 -2.08 10.10 -6.60 12.18 -10.68 l0.43 -0.82 -0.68 0 c-3.20 0 -6.25 -3.58 -6.05 -7.10 l0.08 -1.27 1.25 -0.08 c1.02 -0.08 1.60 0.10 3.38 0.93 1.17 0.55 2.60 1.05 3.17 1.15 0.90 0.15 1.08 0.10 1.35 -0.40 0.65 -1.25 -0.10 -5.38 -1.65 -8.85 -1.65 -3.78 -6.82 -9.77 -11.45 -13.32 l-1.40 -1.10 -1.92 0.45 c-2.10 0.45 -5.22 0.38 -6.45 -0.17 -0.38 -0.17 -1.38 -1.33 -2.28 -2.58 -0.88 -1.25 -2.30 -3.08 -3.17 -4.05 -1.80 -2.03 -7.45 -7.47 -8.65 -8.32 l-0.80 -0.55 0 0.75 c0 1.25 -0.95 3.80 -1.98 5.28 -1.23 1.77 -3.45 3.30 -6.05 4.13 -1.63 0.50 -2.50 0.63 -4.68 0.63 -4.68 0 -6.68 -0.80 -9.68 -3.85 -3.20 -3.28 -4.95 -6.70 -4.82 -9.48 l0.08 -1.55 0.98 -0.08 c0.73 -0.08 1.45 0.15 3.05 0.98 1.98 1 2.13 1.05 3.03 0.75 0.52 -0.17 1.15 -0.47 1.40 -0.65 0.45 -0.32 0.45 -0.40 -0.30 -1.48 -1.23 -1.75 -3.40 -3.38 -5.30 -3.92 -1.60 -0.45 -1.98 -0.85 -1.98 -2.15 0 -1.40 0.65 -2.08 3.08 -3.20 2.90 -1.33 3.70 -1.48 8.05 -1.50 3.28 0 4.25 0.08 5.38 0.47 2.42 0.82 4.32 1.98 6.22 3.80 l1.85 1.80 1.15 -0.90 c3.28 -2.50 6.85 -2.70 11 -0.55 0.77 0.40 3.15 1.85 5.28 3.20 2.13 1.38 5.35 3.45 7.13 4.60 3.63 2.30 5.75 4.30 6.72 6.25 0.55 1.08 0.65 1.65 0.65 3.38 0 2.65 -0.35 3.50 -2.22 5.30 l-1.48 1.42 0.90 0.60 c1.55 1.08 6.88 6.53 8.52 8.75 1.88 2.55 3.88 6.50 4.38 8.75 0.20 0.90 0.45 2.50 0.55 3.58 l0.17 1.92 1.05 0 c0.75 0 1.13 0.13 1.23 0.40 0.50 1.33 -0.35 3.67 -1.98 5.45 l-0.90 0.95 1.63 -0.10 c2.15 -0.13 5.28 -1.65 7.20 -3.53 1.63 -1.55 3.60 -4.53 3.83 -5.72 0.13 -0.60 0.68 -1.42 1.77 -2.58 0.88 -0.93 1.60 -1.80 1.60 -1.90 0 -0.13 -0.30 -0.10 -0.65 0.03 -0.85 0.32 -6.22 0.32 -7.47 -0.03 -0.55 -0.15 -1.88 -0.70 -2.92 -1.25 -1.88 -0.93 -1.95 -0.95 -2.20 -0.47 -0.28 0.50 -1.48 0.68 -2.35 0.35 -0.63 -0.25 -0.50 -2 0.32 -4.10 3.70 -9.52 0.38 -16.65 -11.05 -23.60 -0.63 -0.38 -0.70 -0.55 -0.63 -1.48 0.10 -1.27 0.60 -1.58 3.42 -2.05 l1.90 -0.30 -1.13 -0.17 c-0.63 -0.08 -1.80 -0.17 -2.63 -0.22 l-1.50 -0.05 -0.08 -0.85 c-0.05 -0.57 0.17 -1.38 0.82 -2.63 0.70 -1.38 0.93 -2.20 1.05 -3.65 l0.15 -1.88 -0.82 0.70 c-0.45 0.40 -1.50 1.08 -2.35 1.50 l-1.52 0.80 -4.75 0 -4.75 0 -2 -0.82 c-1.10 -0.45 -4.50 -2.25 -7.55 -3.95 -10.65 -5.97 -15.60 -7.95 -20.83 -8.25 -4.68 -0.30 -9.38 1.10 -11.98 3.53 -1.23 1.15 -1.27 1.17 -2.58 1.08 -0.80 -0.08 -2.15 -0.50 -3.38 -1.05 -2.95 -1.33 -5.10 -1.73 -8.57 -1.58 -4.82 0.22 -7.35 1.38 -15.85 7.28 -8.95 6.20 -9.73 6.53 -15.02 6.53 -4.35 -0.03 -5.72 -0.45 -7.47 -2.40 l-1.13 -1.25 -0.25 0.95 c-1.42 5.03 -0.60 7.82 2.95 10.15 1.75 1.17 1.77 1.20 1.77 2.30 0 1.33 -0.17 1.48 -3.15 2.60 -1.13 0.43 -2.22 1 -2.45 1.25 -0.25 0.28 -0.75 0.57 -1.10 0.68 -0.60 0.17 -0.52 0.22 0.57 0.35 1.25 0.13 1.25 0.13 1.33 1.10 0.05 0.68 -0.08 1.20 -0.52 1.88 -1.27 1.92 -1.95 3.35 -3.67 7.72 -2.60 6.63 -4.85 9.70 -8.40 11.50 -2.60 1.30 -4.03 1.60 -7.32 1.50 -3.40 -0.08 -3.42 -0.05 -1.42 1.73 1.70 1.50 3.45 1.95 6.78 1.73 l2.65 -0.17 -0.08 1.20 c-0.08 1.05 -0.17 1.25 -0.82 1.55 -0.40 0.20 -1.75 0.43 -2.95 0.50 l-2.20 0.15 1 1.55 c1.17 1.83 2.83 3.03 5.28 3.83 0.90 0.30 1.77 0.65 1.92 0.80 0.40 0.32 0.43 1.80 0.08 2.45 -0.25 0.47 -0.22 0.47 0.60 -0.03 0.57 -0.32 1.20 -0.47 1.83 -0.43 0.90 0.08 0.95 0.13 1.02 1 0.08 0.77 -0.28 1.55 -1.90 4.53 -3.63 6.50 -4.57 7.82 -7.25 9.85 l-1.83 1.40 0.70 0.45 c0.38 0.25 1.77 0.80 3.08 1.25 2.10 0.73 2.67 0.82 5.13 0.82 1.92 0 3.15 -0.13 4.10 -0.43 0.75 -0.22 1.92 -0.43 2.58 -0.43 l1.23 0 -0.08 1.17 c-0.08 1.25 -0.20 1.38 -2.20 2.17 l-0.88 0.35 1.45 0.68 c0.77 0.35 2.33 0.85 3.40 1.08 1.75 0.35 2.25 0.38 4.07 0.08 4.57 -0.75 4.95 -0.68 4.95 0.95 0 1.08 -0.30 1.58 -2.50 3.92 -1.77 1.92 -4.88 6.18 -4.88 6.68 0 0.38 2.08 1.05 4.50 1.45 3.30 0.52 6.25 -0.05 8.98 -1.77 0.95 -0.60 1.42 -0.75 2.25 -0.70 l1.02 0.08 -0.03 1.15 0 1.15 1.38 -0.32 c0.77 -0.17 1.92 -0.32 2.60 -0.35 l1.17 0 0 1.10 c0 0.85 -0.13 1.20 -0.52 1.48 -0.60 0.45 -0.45 0.55 1.30 1.02 1.75 0.47 3.25 0.47 5.55 0.05z m36.05 -0.90 c0.13 0 0.43 -0.28 0.63 -0.60 0.20 -0.32 0.70 -1.02 1.10 -1.52 0.82 -1 1.13 -2.80 0.68 -3.95 l-0.28 -0.68 -1.02 1.10 c-1.48 1.63 -2.80 2 -6.72 2 -3.65 0 -5.45 -0.35 -7.90 -1.48 l-1.77 -0.80 -0.25 1.33 c-0.32 1.75 0.10 2.45 2.13 3.70 2.10 1.27 3.88 1.77 4.82 1.38 0.60 -0.22 1.27 -0.20 3.55 0.13 1.52 0.25 2.97 0.45 3.17 0.50 0.20 0.03 0.65 -0.22 1 -0.52 0.35 -0.32 0.73 -0.57 0.88 -0.57z m23.92 -5.18 c0.52 -0.22 1.13 -0.68 1.35 -1.02 0.40 -0.60 0.45 -0.60 2.55 -0.43 2.53 0.22 4.13 0.20 5.13 -0.08 l0.70 -0.17 -1.52 -1.75 c-2.53 -2.85 -3.25 -4.05 -3.25 -5.43 l0 -1.20 1.10 0 c0.63 0 2.10 0.32 3.33 0.73 2.47 0.85 4.95 1.17 6.68 0.93 l1.15 -0.17 -1.17 -0.80 c-1.13 -0.75 -1.20 -0.85 -1.20 -1.92 l0 -1.13 1.17 -0.08 c0.65 -0.05 1.40 0.05 1.70 0.20 1.50 0.80 4.53 0.73 6.78 -0.15 1.02 -0.43 1.30 -0.85 0.50 -0.85 -0.73 0 -1.08 -0.63 -0.98 -1.80 l0.08 -1.08 3.75 0 c3.40 -0.03 3.92 -0.08 5.53 -0.68 1.90 -0.70 2.95 -1.20 4.43 -2.13 l0.98 -0.60 -1.55 -0.75 c-2.33 -1.10 -4.28 -3.22 -7.60 -8.30 -1.60 -2.42 -2.97 -4.43 -3.08 -4.43 -0.13 0 -0.65 0.82 -1.20 1.83 -1.17 2.13 -5.20 6.30 -7.50 7.80 -2.47 1.63 -5.10 2.88 -5.97 2.88 -0.63 0 -0.88 0.13 -0.98 0.47 -0.20 0.85 -4.10 3.35 -7.13 4.63 -0.85 0.35 -2.75 1.55 -4.20 2.63 -2.80 2.08 -6.43 4.32 -9.63 5.95 l-1.92 0.95 2.10 0.98 c1.70 0.77 2.40 1.30 3.70 2.67 0.88 0.93 1.67 1.90 1.77 2.20 0.08 0.28 0.40 0.55 0.70 0.60 0.88 0.17 2.72 -0.08 3.72 -0.50z m-28.85 -1.50 c-0.38 -0.05 -1.05 -0.05 -1.50 0 -0.45 0.05 -0.15 0.10 0.68 0.10 0.82 0 1.20 -0.05 0.82 -0.10z m-0.82 -3.33 c6.18 -0.60 12.75 -2.55 18.55 -5.53 2.83 -1.48 8.15 -4.90 9.90 -6.43 l1.20 -1.05 -1.25 0 -1.27 0 0 -1.17 c0 -0.93 0.20 -1.48 1 -2.67 2.55 -3.92 4.55 -9.77 5.13 -14.90 l0.15 -1.38 -1.40 2.13 c-1.95 2.95 -2.28 3.25 -3.45 3.25 l-1 0 0.22 -1.80 c0.50 -4.35 0 -6.78 -1.77 -8.43 -1.08 -0.98 -1.50 -1.15 -2.88 -1.02 -1.60 0.13 -4.13 2.38 -5.93 5.28 -0.82 1.35 -0.98 1.48 -1.77 1.48 l-0.88 0 0.13 -1.60 c0.32 -3.83 3.75 -8.25 7.43 -9.52 1.23 -0.43 3.72 -0.50 5 -0.13 0.47 0.13 1.30 0.57 1.80 1 0.75 0.60 1.20 0.75 2.10 0.75 l1.15 0 -0.05 1.25 c-0.05 0.98 0.05 1.40 0.47 1.95 l0.52 0.68 0 -0.65 c0.03 -0.82 -0.63 -4.43 -1.10 -6.13 -0.35 -1.23 -0.38 -1.25 -1.92 -1.80 -0.88 -0.30 -3.03 -0.90 -4.82 -1.38 -3.25 -0.82 -3.25 -0.82 -4.13 -0.35 -0.65 0.35 -1.27 0.43 -2.47 0.35 -1.48 -0.08 -1.65 -0.15 -2.47 -1.02 l-0.88 -0.98 -3.20 0.17 c-3.65 0.20 -3.53 0.25 -3.85 -1.98 -0.10 -0.68 -0.25 -1.35 -0.32 -1.48 -0.05 -0.13 -0.38 0.63 -0.70 1.65 -0.32 1.02 -0.80 2.05 -1.08 2.30 -0.30 0.28 -1.88 0.70 -4.30 1.15 -6.95 1.30 -6.40 1.10 -6.55 2.40 -0.22 2.05 -1.52 2.85 -4.60 2.83 -1.08 0 -2.35 -0.15 -2.83 -0.32 -0.80 -0.28 -1.10 -0.22 -3.22 0.52 -3.83 1.38 -8.93 3.50 -12.52 5.25 -1.85 0.90 -3.42 1.67 -3.45 1.73 -0.05 0.03 -0.10 1.30 -0.08 2.83 0 2.40 0.22 4.65 0.68 6.80 l0.13 0.68 1.10 -0.60 1.08 -0.63 -0.13 -1.48 -0.15 -1.48 1 -0.25 c1.20 -0.32 3.72 -1.92 5.45 -3.45 0.68 -0.60 1.95 -1.45 2.80 -1.85 1.52 -0.77 1.58 -0.77 4.75 -0.68 3.53 0.10 4.30 0.32 6.97 2.10 1.98 1.30 2.85 2.60 2.85 4.15 0 1.20 0 1.20 -0.80 1.20 -0.50 0 -1.27 -0.30 -1.95 -0.77 -2.80 -1.88 -5.72 -2.92 -7.30 -2.60 -2.85 0.63 -6.18 3.67 -7.35 6.75 -0.52 1.38 -0.32 2.25 1.02 4.47 0.55 0.90 0.88 1.77 0.88 2.30 0 0.82 -0.03 0.85 -1.08 0.85 -0.90 0 -1.42 -0.25 -3.30 -1.50 -1.20 -0.82 -2.85 -2.08 -3.65 -2.78 l-1.48 -1.27 0.35 0.98 c1.25 3.40 3.20 6.35 5.90 8.90 1.88 1.75 4.40 3.30 7.32 4.40 0.60 0.22 0.68 0.40 0.68 1.38 0 1.05 -0.05 1.13 -0.93 1.42 -1.05 0.35 -5.78 0.45 -7.57 0.17 l-1.13 -0.20 0.85 0.75 c0.93 0.77 5.78 2.67 8.98 3.47 3.03 0.77 6.13 1.30 8.88 1.50 3.63 0.28 3.78 0.30 6.55 0.03z m-30.25 -7.25 c-0.20 -0.40 -0.38 -1.30 -0.38 -2 l0 -1.25 0.98 0 c0.52 0 1.73 0.28 2.63 0.63 0.93 0.35 1.73 0.63 1.83 0.63 0.08 0 -0.80 -1 -1.98 -2.20 -3.25 -3.38 -5.18 -7 -6.38 -12 -0.55 -2.38 -0.65 -3.38 -0.75 -8.70 -0.13 -5.25 -0.05 -6.47 0.40 -9.65 0.55 -3.88 1.35 -7.30 2.35 -10 l0.57 -1.63 -4.63 -0.15 -4.63 -0.13 -1.77 0.88 c-3.90 1.98 -6.32 3.88 -8.77 6.95 -5.30 6.57 -7.28 15.88 -4.70 22.05 l0.35 0.82 1.27 -0.63 c1.52 -0.77 2.92 -2.03 4.13 -3.65 0.82 -1.13 0.98 -1.23 1.95 -1.23 0.57 0 1.17 0.13 1.35 0.30 0.45 0.45 0.38 3.95 -0.10 5.38 -0.60 1.73 -1.98 3.70 -3.25 4.63 -1.02 0.73 -1.08 0.82 -0.77 1.30 1 1.55 5.55 4.30 11.30 6.78 2.13 0.93 8.93 3.58 9.32 3.63 0.03 0 -0.10 -0.32 -0.32 -0.75z m-23.17 -12.75 c0.35 -0.22 0.32 -0.25 -0.15 -0.13 -0.32 0.10 -1.13 0.28 -1.75 0.40 l-1.17 0.20 1.33 -0.10 c0.70 -0.05 1.50 -0.22 1.75 -0.38z m108.05 -13.50 c0.28 -0.17 0.03 -0.25 -0.88 -0.25 -0.68 0 -1.52 -0.08 -1.88 -0.15 l-0.63 -0.13 0.63 0.38 c0.70 0.43 2.20 0.52 2.75 0.15z m-101.20 -20.80 c0.38 -0.25 1.58 -0.93 2.70 -1.48 l2.03 -1 5.93 0.15 c4.70 0.13 6.05 0.10 6.55 -0.17 2.15 -1.15 4.15 -7.30 4.43 -13.57 0.15 -3.38 -0.20 -6.25 -1.08 -8.68 -0.45 -1.27 -1.50 -2.45 -2.20 -2.45 -0.88 0 -5.18 2.08 -7.55 3.63 -1.23 0.77 -3.08 2.13 -4.10 2.97 -2.97 2.45 -5.55 4.28 -6.50 4.65 -5.43 2.05 -9.07 5.50 -9.05 8.52 0.05 2.63 2.90 6.30 6.20 8 0.98 0.47 1.23 0.43 2.65 -0.57z m85.07 -8.88 c2.88 -0.90 5.63 -2.88 6.47 -4.70 0.38 -0.77 0.38 -0.95 0.03 -1.77 -0.90 -2.17 -3.08 -4.10 -8.40 -7.43 -1.85 -1.15 -4.47 -2.83 -5.88 -3.72 -3.17 -2.08 -6.10 -3.63 -7.22 -3.85 -1.15 -0.20 -2.65 0.52 -4.45 2.22 -1.23 1.15 -1.38 1.40 -1.27 2.05 0.10 0.60 0.47 0.98 1.58 1.70 1.88 1.20 5.78 4.70 8.90 7.95 2.33 2.42 3.60 3.97 5.55 6.80 1.02 1.50 1.85 1.63 4.70 0.75z m-29.83 -5.30 c3.75 -1.45 5.53 -3.67 6.22 -7.78 0.70 -4.22 -2.65 -8.98 -7.78 -11 -1.88 -0.73 -2.13 -0.68 -1.58 0.32 0.32 0.60 0.45 1.38 0.43 3.17 0 2.92 -0.55 4.22 -2.60 6.25 -2 2 -3.35 2.60 -6.05 2.60 -1.23 0.03 -2.20 0.08 -2.20 0.17 0 0.30 1.67 2.45 2.97 3.80 1.35 1.42 2.40 2.10 4.25 2.83 1.30 0.50 4.55 0.30 6.32 -0.38z m-5.70 -14.95 c0.20 -0.88 -0.22 -1.90 -1.08 -2.67 -0.30 -0.28 -0.52 -0.77 -0.52 -1.20 0 -0.38 -0.08 -0.70 -0.17 -0.70 -0.55 0.03 -3.45 0.80 -3.95 1.08 -0.60 0.30 -0.60 0.32 1.08 1.45 0.93 0.60 2.17 1.75 2.80 2.53 1.08 1.35 1.13 1.40 1.40 0.88 0.17 -0.30 0.38 -0.90 0.45 -1.35z"/>
 </g>
 <g fill="#0f0808">
  <path d="M133.18 181.38 c-1.23 -1.42 -2.45 -2.63 -2.63 -2.55 -0.10 0.03 -0.20 -0.05 -0.25 -0.20 -0.03 -0.15 0.82 -0.28 2.13 -0.28 4.70 -0.10 7.22 -0.52 9.40 -1.63 0.50 -0.28 0.60 0.15 0.13 0.60 -2.70 2.60 -5.47 4.32 -7.32 4.55 -0.73 0.10 -1 0 -1.45 -0.50z"/>
  <path d="M122.50 147.25 c-0.75 -0.15 -1.92 -0.38 -2.60 -0.52 -1.17 -0.28 -1.20 -0.30 -1.05 -1.08 0.08 -0.43 1.02 -2.53 2.08 -4.65 1.38 -2.72 2.08 -3.88 2.38 -3.88 0.22 0 1.65 1.15 3.15 2.55 2.72 2.55 5.22 5.75 4.97 6.38 -0.30 0.82 -6.32 1.63 -8.93 1.20z"/>
  <path d="M146.50 141.73 c0 -0.73 2.70 -9.05 3.10 -9.63 0.47 -0.63 1.17 -0.28 2.38 1.15 1.20 1.42 1.45 2.40 1.02 3.97 -0.52 1.98 -3.25 4.25 -5.82 4.90 -0.60 0.15 -0.68 0.10 -0.68 -0.40z"/>
  <path d="M134.25 121.40 c0 -0.20 1.77 -0.30 1.90 -0.10 0.08 0.10 -0.32 0.20 -0.88 0.20 -0.57 0 -1.02 -0.05 -1.02 -0.10z"/>
  <path d="M129.57 121.07 c0.22 -0.05 0.63 -0.05 0.88 0 0.22 0.08 0.03 0.13 -0.45 0.13 -0.47 0 -0.68 -0.05 -0.43 -0.13z"/>
  <path d="M132.93 120.57 c-0.03 -0.03 -0.55 -0.10 -1.17 -0.20 -0.60 -0.10 -1.20 -0.22 -1.30 -0.28 -0.08 -0.05 -0.22 0 -0.32 0.15 -0.10 0.15 -0.35 0.10 -0.73 -0.13 -0.50 -0.32 -0.63 -0.32 -1.15 0.05 -0.52 0.38 -0.70 0.38 -2.45 -0.05 -2.35 -0.60 -5 -2.17 -5.65 -3.40 -0.45 -0.82 -0.45 -1.02 -0.15 -2.78 0.17 -1.05 0.40 -2.03 0.50 -2.20 0.15 -0.25 0.80 -0.03 2.53 0.82 2.80 1.35 4.53 1.75 7.72 1.75 3.10 0.03 4.63 -0.47 5.95 -1.92 0.52 -0.57 1.08 -1.25 1.23 -1.52 0.35 -0.63 0.90 -0.35 1.38 0.68 0.88 1.85 0.68 4.45 -0.47 5.90 -0.40 0.45 -0.90 1.15 -1.13 1.50 -0.25 0.38 -0.55 0.68 -0.68 0.68 -0.13 0 -0.52 0.25 -0.90 0.57 -0.52 0.45 -0.90 0.55 -1.90 0.50 -0.70 -0.05 -1.27 -0.10 -1.30 -0.13z"/>
  <path d="M137.27 120.35 c0.17 -0.20 0.52 -0.50 0.77 -0.63 0.43 -0.22 0.45 -0.20 0.22 0.22 -0.15 0.28 -0.50 0.55 -0.77 0.63 -0.45 0.13 -0.47 0.08 -0.22 -0.22z"/>
  <path d="M143.02 96.03 c-0.98 -0.90 -1.10 -2.42 -0.25 -3.17 0.65 -0.60 4.25 -0.85 4.85 -0.35 0.45 0.38 0.50 1.80 0.10 2.58 -0.68 1.30 -1.25 1.67 -2.63 1.67 -1.08 0 -1.42 -0.13 -2.08 -0.73z"/>
  <path d="M170.23 93.15 c0.43 -0.50 -0.38 -1.30 -0.88 -0.88 -0.28 0.22 -0.35 0.15 -0.35 -0.38 0 -0.73 0.73 -1.15 1.95 -1.15 l0.65 0 -0.55 0.40 c-0.30 0.20 -0.55 0.52 -0.55 0.68 0 0.17 0.10 0.15 0.25 -0.08 0.20 -0.30 0.25 -0.30 0.40 0.10 0.13 0.35 0.35 0.43 0.88 0.30 0.63 -0.13 0.73 -0.08 0.73 0.45 0 0.47 -0.17 0.60 -0.93 0.75 -1.58 0.25 -1.92 0.20 -1.60 -0.20z"/>
  <path d="M114.75 81.68 c0 -0.93 1.02 -2.58 2.05 -3.28 0.77 -0.55 4.68 -0.55 5.70 -0.03 1 0.52 2 2.05 2 3.05 0 0.77 -0.05 0.82 -0.90 0.82 -0.65 0 -1.10 -0.20 -1.67 -0.77 -1.85 -1.75 -2.63 -1.75 -4.45 0.03 -0.80 0.77 -1.23 1 -1.88 1 -0.80 0 -0.85 -0.05 -0.85 -0.82z"/>
  <path d="M201.30 68.57 l0.08 -1.70 1 -0.08 c0.85 -0.05 0.95 0 0.60 0.25 -0.22 0.17 -0.47 0.75 -0.57 1.30 -0.20 1.02 -0.65 1.90 -0.98 1.90 -0.10 0 -0.17 -0.75 -0.13 -1.67z"/>
 </g>
 <g fill="#241310">
  <path d="M116.25 93.85 c-1.42 -1.30 -2.03 -3.08 -2.20 -6.53 -0.08 -1.73 0 -3.40 0.17 -4.38 0.28 -1.40 0.47 -1.73 1.58 -2.78 1.50 -1.45 2.03 -1.67 4.03 -1.67 1.73 0.03 2.08 0.17 3.75 1.63 1.48 1.27 1.77 2.53 1.63 6.75 -0.13 3.25 -0.50 4.53 -1.80 6.07 -0.55 0.65 -0.88 0.80 -1.65 0.80 -0.73 0 -0.98 0.10 -1.08 0.50 -0.10 0.43 -0.35 0.50 -1.77 0.50 -1.55 0 -1.73 -0.05 -2.65 -0.90z m4.70 -2.28 c0.30 -1.33 0.20 -1.75 -0.47 -1.95 -0.70 -0.22 -1.38 0.05 -1.85 0.77 -0.40 0.63 -0.40 0.68 0.30 1.33 0.63 0.63 1.15 0.95 1.63 1 0.08 0.03 0.28 -0.50 0.40 -1.15z m-4.22 -10.82 c1.17 -1.15 1.92 -1.50 3.10 -1.50 0.95 0.03 1.58 0.35 2.80 1.45 0.50 0.47 0.95 0.80 1 0.75 0.22 -0.22 -1.17 -1.98 -1.88 -2.33 -0.40 -0.20 -1.38 -0.38 -2.22 -0.38 -1.30 0 -1.63 0.10 -2.33 0.73 -0.75 0.65 -1.90 2.28 -1.63 2.28 0.08 0 0.57 -0.45 1.15 -1z"/>
  <path d="M147.25 88.07 c-1 -0.90 -1.25 -2 -1.23 -5.45 0.03 -3.45 0.17 -3.97 1.05 -4.07 0.75 -0.10 0.90 -0.43 0.30 -0.65 -0.98 -0.38 -0.03 -3.75 1.48 -5.13 0.57 -0.55 0.95 -0.63 2.85 -0.73 2.17 -0.10 2.22 -0.10 2.95 0.65 1.88 1.88 2.08 6.70 0.47 11.48 -1.25 3.72 -2.25 4.57 -5.28 4.57 -1.65 0 -1.92 -0.08 -2.60 -0.68z m3.63 -1.83 c0.22 -0.43 0.32 -0.88 0.25 -1 -0.25 -0.43 -1.10 -0.28 -1.67 0.30 l-0.52 0.52 0.57 0.47 c0.75 0.60 0.93 0.57 1.38 -0.30z"/>
  <path d="M198.45 71.32 c-0.57 -0.15 -0.65 -1.83 -0.08 -1.83 0.20 0 0.38 -0.20 0.38 -0.43 0 -0.55 2.22 -1.83 3.17 -1.83 0.52 0 0.60 0.08 0.38 0.30 -0.17 0.17 -0.30 0.70 -0.30 1.20 0 0.88 -0.47 1.85 -1.20 2.45 -0.38 0.30 -1.48 0.35 -2.35 0.13z"/>
  <path d="M84.03 38.55 c-0.35 -0.68 -0.35 -1.05 0.05 -1.05 0.15 0 0.88 -0.45 1.55 -1 0.70 -0.55 1.35 -1 1.48 -1 0.28 0 0 2.75 -0.32 3.08 -0.13 0.13 -0.73 0.30 -1.35 0.35 -0.95 0.13 -1.17 0.05 -1.40 -0.38z"/>
 </g>
 <g fill="#2f1811">
  <path d="M119 94.25 c-0.30 -0.20 -0.28 -0.25 0.17 -0.25 0.77 0 0.95 -0.43 0.28 -0.65 -0.32 -0.10 -0.85 -0.43 -1.17 -0.75 l-0.60 -0.60 1 0 c0.63 0 1.25 -0.20 1.65 -0.50 0.93 -0.75 1.60 -0.65 1.63 0.20 0 0.38 -0.13 0.82 -0.25 1 -0.38 0.45 0.05 0.38 0.60 -0.13 0.43 -0.38 0.45 -0.38 0.45 0.10 0 0.28 -0.28 0.80 -0.63 1.17 -0.47 0.50 -0.82 0.65 -1.67 0.65 -0.60 0 -1.25 -0.13 -1.45 -0.25z"/>
  <path d="M196.57 71.57 c-0.17 -0.05 -0.32 -0.55 -0.32 -1.08 0 -0.90 0.05 -0.98 1.17 -1.35 0.65 -0.22 1.58 -0.40 2.05 -0.40 0.82 0.03 0.85 0.05 0.43 0.38 -0.25 0.17 -0.38 0.47 -0.28 0.60 0.08 0.15 -0.10 0.38 -0.43 0.50 -0.52 0.22 -0.52 0.25 -0.08 0.30 0.28 0 0.70 0.03 0.93 0 0.30 -0.05 0.38 0.10 0.28 0.43 -0.08 0.35 -0.43 0.52 -1.25 0.65 -1.30 0.17 -2.05 0.17 -2.50 -0.03z"/>
  <path d="M80.88 55.90 c-2.83 -1.25 -5.72 -4.63 -6.35 -7.38 -0.20 -0.98 -0.20 -1.02 0.38 -1.02 0.35 0 1.25 0.32 2.05 0.73 0.77 0.38 2.03 0.90 2.75 1.15 0.77 0.25 1.63 0.75 2 1.15 0.50 0.57 0.85 0.73 1.63 0.73 1.30 0 6.18 1.02 6.18 1.30 0 0.10 -0.88 0.63 -1.92 1.15 -1.08 0.55 -2.50 1.33 -3.17 1.75 -1.35 0.88 -2.33 0.98 -3.53 0.45z"/>
  <path d="M98.43 53.08 c-0.05 -0.03 -1.45 -0.08 -3.15 -0.10 -1.67 -0.03 -3.28 -0.10 -3.55 -0.15 -1.02 -0.28 -0.32 -0.88 1.77 -1.55 3 -0.98 5.80 -2.50 8.20 -4.53 1.80 -1.50 2.22 -1.75 3.05 -1.75 l0.98 0 -0.50 1.83 c-0.65 2.28 -1.75 4.63 -2.58 5.40 -0.50 0.47 -1.02 0.63 -2.40 0.75 -0.98 0.10 -1.80 0.15 -1.83 0.10z"/>
  <path d="M165.05 46.83 c-0.35 -0.08 -0.93 -0.60 -1.38 -1.25 -1.95 -2.83 -3.22 -4.38 -5.55 -6.80 -3.03 -3.15 -6.78 -6.53 -8.55 -7.72 -2.03 -1.35 -1.83 -1.65 1.33 -1.88 1.05 -0.08 1.90 -0.32 2.65 -0.77 0.80 -0.47 1.48 -0.65 2.40 -0.65 1.38 0 1.38 0 1.70 1.88 0.08 0.57 1.05 2.53 2.28 4.63 3.03 5.15 3.20 5.38 4.25 6.10 2.33 1.63 4.75 3.03 6.28 3.65 2.17 0.88 2.25 1.30 0.38 2 -2.33 0.88 -4.18 1.13 -5.78 0.82z"/>
  <path d="M92 40.40 c-0.45 -0.25 -0.70 -0.70 -0.88 -1.58 -0.30 -1.38 -0.35 -1.38 -2.95 -0.55 -1.77 0.57 -2.92 0.63 -2.92 0.13 0 -0.17 0.22 -0.40 0.50 -0.47 0.32 -0.08 0.45 -0.28 0.35 -0.50 -0.08 -0.20 -0.03 -0.45 0.13 -0.55 0.15 -0.08 0.28 -0.35 0.28 -0.60 0 -0.25 0.50 -0.80 1.10 -1.23 1.08 -0.77 1.15 -0.80 3.90 -0.80 l2.80 0 0.73 0.77 c0.38 0.43 0.77 1.15 0.88 1.63 0.25 1.30 0 3.60 -0.43 3.88 -0.52 0.32 -2.78 0.25 -3.47 -0.13z"/>
  <path d="M168.35 37.63 c-0.63 -0.68 -0.88 -1.20 -1 -2.13 -0.15 -1.13 -0.25 -1.25 -1 -1.50 -0.45 -0.15 -0.88 -0.47 -0.95 -0.70 -0.25 -0.82 -0.70 -3.78 -0.60 -4.03 0.03 -0.15 1.50 0.63 3.22 1.70 4.82 2.97 4.45 2.60 4.47 4.72 0 2.53 -0.17 2.80 -1.92 2.80 -1.27 0 -1.48 -0.08 -2.22 -0.88z"/>
 </g>
 <g fill="#422217">
  <path d="M85.88 52.50 c-1.10 -0.28 -2.53 -0.47 -3.15 -0.47 -0.93 -0.03 -1.25 -0.15 -1.77 -0.75 -0.38 -0.40 -1.10 -0.85 -1.63 -1.02 -0.52 -0.15 -1.83 -0.70 -2.90 -1.20 -2.22 -1.02 -2.40 -1.35 -1.95 -3.42 0.63 -2.80 2.72 -4.88 6.90 -6.90 2.65 -1.30 3.25 -1.45 3.45 -0.88 0.13 0.32 0.32 0.30 1.48 0 0.73 -0.22 1.92 -0.55 2.65 -0.75 0.75 -0.20 1.65 -0.35 2 -0.30 0.57 0.08 0.70 0.25 0.93 1.30 0.22 1 0.40 1.30 1.05 1.60 1.17 0.55 2.03 0.25 2.22 -0.80 0.20 -1.15 -0.05 -2.13 -0.75 -3.03 -0.60 -0.75 -0.65 -0.75 -3.58 -0.88 l-2.95 -0.13 1.75 -1.48 c2.60 -2.17 6.38 -4.57 9.10 -5.80 4.90 -2.22 6.28 -1.38 7.40 4.43 0.47 2.58 0.47 7.65 0 10.63 -0.45 2.80 -0.55 3.10 -1.13 3.10 -0.25 0 -1.40 0.77 -2.55 1.75 -5.07 4.25 -11.45 6.18 -16.58 5z"/>
  <path d="M171.40 45.55 c-0.08 -0.13 -0.77 -0.47 -1.58 -0.75 -1.35 -0.50 -4.10 -2.08 -6.40 -3.70 -1.05 -0.73 -1.23 -0.95 -4.25 -6.10 -1.23 -2.10 -2.20 -4.05 -2.28 -4.63 -0.38 -2.17 -0.70 -2.33 -2.60 -1.23 -0.75 0.45 -1.60 0.70 -2.65 0.77 -2.15 0.15 -2.70 0.30 -2.50 0.63 0.10 0.15 -0.17 0.08 -0.57 -0.17 -0.63 -0.35 -0.80 -0.70 -1.02 -1.85 l-0.28 -1.40 1.50 -1.42 c3.85 -3.63 5.88 -3.38 13.68 1.73 1.63 1.05 3 2 3.08 2.15 0.10 0.13 0.25 0.80 0.32 1.45 0.22 1.73 0.35 1.92 1.27 2.22 0.73 0.25 0.82 0.38 0.98 1.50 0.30 2.25 2.65 3.92 3.42 2.45 0.17 -0.32 0.22 -1.15 0.15 -2.13 -0.05 -0.85 -0.03 -1.58 0.10 -1.58 0.45 0 3.20 2.53 3.92 3.65 1.50 2.25 1.40 3.92 -0.43 5.93 -1.25 1.35 -3.63 2.88 -3.88 2.47z"/>
 </g>
 <g fill="#643b2e">
  <path d="M98.38 176.65 c-0.55 -0.20 -1.33 -0.47 -1.73 -0.63 l-0.73 -0.30 0.88 -0.93 c1.23 -1.30 1.35 -1.75 0.50 -2.10 -3 -1.23 -4.43 -2.05 -5.63 -3.25 -2.13 -2.15 -3.42 -5.20 -3.42 -8 0 -1.50 0.52 -1.60 1.77 -0.30 2.05 2.13 4.40 3.47 6.93 3.95 1.88 0.35 2.30 0.22 2.30 -0.68 0 -0.40 0.17 -0.45 1.33 -0.38 l1.30 0.08 0.05 2.63 c0 1.45 0.10 3.72 0.17 5.07 0.10 2.08 0.05 2.67 -0.38 3.83 -0.50 1.30 -0.55 1.35 -1.42 1.33 -0.50 0 -1.38 -0.15 -1.92 -0.32z"/>
  <path d="M94.47 120.50 c-1.45 -0.35 -3.72 -1.27 -3.72 -1.50 0 -0.13 0.50 -0.45 1.13 -0.73 1.08 -0.47 1.63 -1.10 1.27 -1.45 -0.08 -0.08 -1.02 0.03 -2.08 0.25 -1.08 0.25 -2.63 0.50 -3.45 0.60 l-1.50 0.15 1.10 -1.17 c0.80 -0.90 1 -1.27 0.80 -1.48 -0.22 -0.22 -0.43 -0.20 -0.85 0.08 -2.83 1.80 -5.05 2.50 -8.07 2.50 -2.85 0 -7.65 -1 -8.45 -1.77 -0.40 -0.38 3.22 -5.53 6 -8.50 1.92 -2.05 2.28 -2.65 1.80 -3.13 -0.28 -0.30 -0.63 -0.28 -2.20 0.05 -2.40 0.50 -6 0.35 -8.25 -0.38 -1.65 -0.52 -4.20 -1.95 -4.25 -2.38 -0.03 -0.15 0.85 -0.52 1.90 -0.88 1.83 -0.60 2.70 -1.25 2.28 -1.67 -0.10 -0.13 -1.05 0.03 -2.13 0.30 -1.45 0.35 -2.75 0.47 -5.18 0.45 -2.97 0 -3.45 -0.08 -5.55 -0.80 -1.27 -0.43 -2.95 -1.15 -3.72 -1.60 l-1.42 -0.80 0.60 -0.38 c1.80 -1.20 4.50 -3.38 5.07 -4.13 0.65 -0.85 0.68 -0.88 1.50 -0.52 0.98 0.43 5.95 1.63 6.68 1.63 0.25 0 0.60 0.22 0.77 0.50 0.28 0.43 0.60 0.50 2.15 0.50 l1.80 0 -0.50 -1.02 c-0.30 -0.57 -0.50 -1.35 -0.45 -1.80 0.08 -0.80 0.08 -0.80 1.67 -0.88 0.98 -0.05 2.03 0.08 2.75 0.32 0.63 0.20 1.95 0.45 2.95 0.55 1.77 0.15 1.80 0.15 2.63 1.27 1 1.38 3.90 3.72 6.03 4.90 3.65 2.03 12.13 5.53 18.83 7.75 l2.78 0.93 0.30 1.05 c0.17 0.57 0.75 1.90 1.30 2.90 0.52 1.02 0.93 1.90 0.88 1.95 -0.05 0.05 -1.52 -0.60 -3.28 -1.45 -3.45 -1.65 -5.38 -2.15 -5.38 -1.35 0 0.25 0.35 1 0.77 1.67 0.43 0.68 0.73 1.30 0.63 1.38 -0.22 0.25 -4.63 -0.38 -5.97 -0.82 -1.38 -0.47 -1.90 -0.25 -1.45 0.57 0.38 0.73 2.78 1.35 5.78 1.50 2.28 0.13 2.67 0.08 3 -0.30 0.28 -0.32 0.28 -0.57 0.08 -1.15 -0.47 -1.25 0.22 -1.17 3.03 0.25 4.05 2.08 5.97 2 4.68 -0.17 -1.45 -2.45 -2.30 -4.38 -2.05 -4.63 0.17 -0.17 1.13 0.03 3.08 0.65 2.92 0.93 4.82 1.42 7.22 1.92 l1.40 0.28 -0.28 1.35 -0.28 1.38 -5.28 2.60 c-5.28 2.60 -8.70 3.85 -12.27 4.55 -2.03 0.38 -5.18 0.43 -6.60 0.10z"/>
  <path d="M155.82 114.85 c-0.30 -0.08 -0.63 -0.35 -0.70 -0.63 -0.10 -0.28 -0.85 -1.25 -1.70 -2.15 -1.25 -1.35 -1.98 -1.85 -3.80 -2.72 -1.23 -0.57 -2.58 -1.15 -2.95 -1.25 -0.65 -0.15 -0.68 -0.17 -0.28 -0.63 0.22 -0.25 0.80 -0.57 1.25 -0.73 2.17 -0.73 8.50 -4.53 12.10 -7.25 1.05 -0.80 2.65 -1.75 3.53 -2.13 2.13 -0.90 5.28 -2.78 6.60 -3.92 0.60 -0.52 1.23 -0.95 1.42 -0.95 0.50 0 3.05 -1.25 5.07 -2.50 l1.70 -1.02 0.70 0.85 c0.68 0.82 2.63 1.92 4.03 2.28 0.52 0.13 0.75 0.05 0.95 -0.35 0.22 -0.43 0.52 -0.50 2.15 -0.50 1.73 0 1.88 -0.05 1.70 -0.43 -0.10 -0.25 -0.25 -1.10 -0.30 -1.88 l-0.10 -1.45 1.60 0.03 c0.85 0 2.22 0.15 3 0.30 1.27 0.28 1.58 0.47 2.70 1.73 1.48 1.67 3.08 2.78 5.05 3.50 0.80 0.28 1.45 0.60 1.45 0.68 0 0.20 -2.72 2 -3.97 2.65 -2.83 1.45 -7.28 2.28 -10.23 1.90 -1.27 -0.15 -1.63 -0.13 -1.73 0.15 -0.28 0.68 0.57 1.13 2.45 1.30 l1.85 0.17 -2.38 1.17 c-3.60 1.77 -6.47 2.05 -9.57 1 -0.88 -0.32 -1.25 -0.35 -1.48 -0.13 -0.40 0.40 0.03 0.82 2.08 2.10 0.95 0.57 1.73 1.15 1.73 1.23 0 0.38 -3.72 0.77 -6 0.65 -1.75 -0.08 -3.03 -0.32 -4.70 -0.90 -2.70 -0.90 -3.05 -0.93 -3.05 -0.32 0 0.85 3.30 5.07 5.35 6.85 l0.77 0.65 -0.68 0.28 c-1.35 0.52 -4.53 0.77 -6.57 0.52 -1.92 -0.22 -2.03 -0.20 -2.50 0.35 -0.28 0.32 -0.85 0.77 -1.27 0.98 -0.80 0.40 -4.25 0.75 -5.28 0.52z"/>
  <path d="M99.63 102.88 c-1.77 -0.63 -3.38 -1.27 -3.53 -1.42 -0.52 -0.55 -1.35 -3.70 -1.35 -5.10 l0 -1.35 0.95 0 c0.77 0 1.27 0.25 2.50 1.20 0.82 0.65 1.88 1.40 2.33 1.67 0.90 0.55 1.23 1.13 0.63 1.13 -0.70 0 -0.45 1.05 0.70 3.08 0.60 1.05 1.08 1.92 1.08 1.92 -0.03 -0.03 -1.50 -0.52 -3.30 -1.13z"/>
  <path d="M164.50 95.15 c0 -0.05 0.52 -0.98 1.15 -2.05 0.65 -1.10 1.60 -2.70 2.13 -3.60 1.48 -2.50 1.90 -4.13 0.85 -3.25 -0.75 0.63 -0.40 -0.90 0.63 -2.83 1.23 -2.25 1.48 -2.47 2.55 -2.38 0.82 0.08 0.82 0.08 0.90 1.55 0.05 0.80 -0.15 2.67 -0.43 4.15 -0.30 1.48 -0.52 2.95 -0.52 3.30 0 0.50 -0.40 0.90 -2.17 2.13 -2.15 1.45 -5.07 3.17 -5.07 2.97z"/>
  <path d="M59.53 85.95 c0.17 -0.32 0.85 -1.58 1.55 -2.78 0.80 -1.45 1.15 -2.30 1 -2.45 -0.17 -0.17 -1.63 0.43 -4.13 1.70 l-3.90 1.95 1.50 -1.60 c0.82 -0.88 1.85 -1.88 2.22 -2.22 1.20 -1 1.40 -1.55 0.75 -2.10 -0.73 -0.57 -0.47 -0.95 0.60 -0.95 1.08 0 4.35 -1.02 7.25 -2.28 1.33 -0.57 2.65 -0.98 3.22 -0.98 l0.95 0 -0.10 1.60 c-0.13 2.03 -1.15 3.67 -4.07 6.55 -2.72 2.67 -4.88 4.10 -6.15 4.10 -0.95 0 -0.98 -0.03 -0.70 -0.55z"/>
  <path d="M106.93 45.70 c0.32 -1.25 0.70 -3.58 0.88 -5.15 l0.30 -2.85 1.63 -1.33 c3.25 -2.60 4.20 -3.13 5.57 -3.13 l1.27 0 -0.13 1.85 c-0.17 2.63 -1.25 4.47 -5.40 9.15 -2.78 3.10 -3.45 3.75 -4.03 3.75 l-0.68 0 0.57 -2.30z"/>
  <path d="M132.23 41.38 c-1.85 -0.68 -2.90 -1.38 -4.38 -2.90 -0.82 -0.88 -1.65 -1.85 -1.83 -2.15 -0.25 -0.50 -0.22 -0.57 0.32 -0.73 0.65 -0.15 4.97 0.52 5.70 0.90 0.28 0.15 0.90 -0.03 2.08 -0.63 0.93 -0.45 2.25 -0.93 2.95 -1 0.80 -0.13 1.63 -0.45 2.15 -0.82 0.73 -0.57 1.10 -0.68 2.75 -0.68 1.05 0 2.38 0.15 2.97 0.35 1.08 0.35 1.08 0.38 0.93 1.25 -0.55 2.90 -3.08 5.25 -6.85 6.38 -1.65 0.47 -5.50 0.50 -6.80 0.03z"/>
  <path d="M132.10 28.17 c-0.93 -2.08 -3.90 -4.53 -6.85 -5.63 -0.60 -0.22 -0.55 -0.28 0.93 -1.02 2.05 -1.02 4.22 -1.52 6.78 -1.52 l2.05 0 0 0.73 c0 0.70 -0.03 0.73 -0.73 0.45 -0.38 -0.13 -0.90 -0.17 -1.15 -0.10 -0.38 0.15 -0.32 0.28 0.35 1.05 0.43 0.50 0.85 1.17 0.93 1.52 0.38 1.48 -0.45 4.47 -1.48 5.30 -0.28 0.25 -0.43 0.10 -0.82 -0.77z"/>
  <path d="M114.50 20.92 l0 -2.67 2 0 c1.27 0 2 -0.10 2 -0.28 0 -0.15 -0.40 -1.08 -0.88 -2.05 -0.77 -1.58 -1.13 -2.92 -0.73 -2.92 0.08 0 0.98 0.40 2.03 0.88 1.05 0.47 2.08 0.88 2.28 0.88 0.20 0 0.93 -0.52 1.60 -1.15 1.48 -1.38 4.25 -2.70 6.45 -3.08 0.90 -0.17 1.92 -0.35 2.33 -0.43 0.65 -0.13 0.68 -0.10 0.68 0.90 0 0.95 -0.13 1.15 -2 2.92 -1.92 1.83 -3.50 4.22 -3.50 5.35 0 0.30 -0.52 0.73 -1.52 1.25 -1.83 0.98 -2.47 1.77 -2 2.53 0.30 0.47 0.25 0.47 -1.52 0.30 -1 -0.10 -1.92 -0.17 -2.08 -0.15 -0.13 0 -1.35 0.10 -2.67 0.20 l-2.45 0.17 0 -2.65z"/>
 </g>
 <g fill="#764735">
  <path d="M125.25 211.30 c0 -1.02 0.13 -1.33 0.82 -2 0.73 -0.70 1 -0.80 2.15 -0.80 1.10 0 1.30 0.08 1.17 0.40 -0.08 0.22 -0.15 0.70 -0.15 1.10 0 0.47 -0.30 1.02 -0.85 1.60 -0.73 0.77 -1 0.90 -2 0.90 l-1.15 0 0 -1.20z"/>
  <path d="M101.78 166.48 c-0.03 -1.25 -0.10 -1.42 -0.57 -1.58 -0.80 -0.20 -1.25 -0.17 -1.10 0.05 0.08 0.13 -0.05 0.47 -0.28 0.80 -0.35 0.50 -0.52 0.55 -1.85 0.40 -3.53 -0.40 -5.72 -1.45 -8.38 -3.95 -1.27 -1.20 -1.35 -1.35 -1.35 -2.47 0 -1.02 0.08 -1.23 0.47 -1.23 0.25 0 0.63 0.25 0.85 0.57 0.28 0.40 0.45 0.47 0.68 0.28 0.22 -0.22 0.22 -0.65 -0.03 -1.83 -0.43 -2.28 -0.17 -6.25 0.57 -8.40 0.73 -2.15 1.27 -2.40 1.70 -0.82 1.02 3.75 4.13 7.43 8 9.43 1.17 0.60 2.15 1.13 2.20 1.17 0.05 0.03 -0.05 0.95 -0.20 2.03 -0.17 1.08 -0.40 3.08 -0.50 4.45 -0.13 1.77 -0.17 2.10 -0.22 1.10z"/>
  <path d="M95.63 101.43 c-5.13 -1.90 -11 -4.72 -13.57 -6.50 -1.77 -1.23 -3.55 -3.05 -3.55 -3.63 0 -0.15 0.63 -0.75 1.38 -1.33 2.38 -1.77 3.97 -4.88 3.83 -7.35 -0.05 -0.85 -0.22 -1.27 -0.52 -1.48 -0.40 -0.22 -0.57 -0.13 -1.13 0.60 -1.60 2.10 -2.95 3.28 -4.63 4.13 -0.95 0.47 -1.92 0.88 -2.17 0.88 -0.93 0 -2 -4.28 -2 -8.02 0 -6 2.08 -11.90 5.85 -16.60 2.47 -3.08 4.85 -4.97 8.82 -6.95 l1.80 -0.93 5.95 0.15 c5.45 0.13 6.03 0.10 6.82 -0.32 1.13 -0.57 2.78 -3.05 3.50 -5.18 0.30 -0.90 0.63 -1.65 0.75 -1.65 0.13 0 1.73 -1.70 3.55 -3.75 3.55 -4.03 5.10 -6.40 5.35 -8.32 0.15 -1.08 0.13 -1.17 -0.35 -1.17 -0.73 0 -4.20 2.42 -6.35 4.47 l-0.95 0.88 0 -2.22 c0 -4.47 -1.02 -8.98 -2.42 -10.65 -1.83 -2.17 -4.20 -1.92 -9.52 0.93 -2.92 1.60 -4.45 2.65 -7.95 5.47 -2.20 1.77 -3.83 2.83 -6.22 4.05 -5.03 2.55 -6.78 3.95 -8.07 6.45 -0.57 1.10 -0.68 1.55 -0.68 3.63 0 2.13 0.08 2.53 0.73 3.88 0.93 1.88 3.97 4.95 5.90 5.97 0.75 0.40 1.42 0.77 1.48 0.82 0.05 0.03 -0.68 0.90 -1.63 1.90 -3.70 3.83 -5.57 7.25 -7.05 12.77 -0.57 2.22 -0.65 3 -0.65 6.40 0 3.53 0.08 4.05 0.68 5.88 0.38 1.10 0.68 2.10 0.68 2.20 0 0.30 -2.88 -0.05 -4.13 -0.47 -1.55 -0.52 -2.13 -0.47 -2.13 0.28 0 1.17 2.05 3.05 4.47 4.03 l1.40 0.60 -2.15 0 c-1.17 0 -2.20 0.08 -2.30 0.15 -0.17 0.20 0.43 1.42 1.23 2.50 0.32 0.43 0.60 0.85 0.60 0.93 0 0.10 -1.38 0.17 -3.08 0.17 -2.78 0 -3.08 -0.05 -3.38 -0.50 -0.17 -0.28 -0.52 -0.50 -0.77 -0.50 -1.17 0 -7.28 -1.63 -7.28 -1.95 0 -0.08 0.15 -0.32 0.35 -0.52 0.20 -0.22 1.10 -1.63 2.03 -3.13 1.13 -1.90 1.80 -2.75 2.13 -2.78 1.35 -0.10 6.63 -4.78 8.35 -7.40 0.90 -1.38 1.45 -3.22 0.98 -3.22 -0.15 0 -0.98 0.32 -1.85 0.73 -2.58 1.15 -5.95 2.28 -7.57 2.50 -1.30 0.17 -1.73 0.13 -3.42 -0.47 -3.30 -1.17 -4.68 -2.40 -6.32 -5.68 -0.35 -0.73 -0.57 -1.35 -0.47 -1.35 0.13 -0.03 1.27 -0.05 2.58 -0.08 2.47 -0.03 3.80 -0.43 3.95 -1.15 0.05 -0.32 -0.32 -0.38 -2.60 -0.30 -3.72 0.15 -5.25 -0.32 -7.10 -2.20 -2.58 -2.60 -2.63 -3.55 -0.10 -3.03 5.88 1.17 11.18 -1.15 14.63 -6.43 0.75 -1.13 1.88 -3.53 2.97 -6.35 1.73 -4.38 2.40 -5.80 3.67 -7.75 0.35 -0.50 0.55 -1.05 0.45 -1.23 -0.28 -0.43 -2.10 -0.15 -3.72 0.60 -0.77 0.35 -1.40 0.55 -1.40 0.45 0 -0.35 3.20 -3.28 3.58 -3.28 0.17 0 0.55 -0.22 0.80 -0.50 0.25 -0.28 1.35 -0.85 2.47 -1.27 2.40 -0.90 3.15 -1.35 3.15 -1.85 0 -0.20 -0.80 -0.90 -1.77 -1.55 -2.70 -1.75 -3.72 -3.78 -3.72 -7.15 0 -2.25 1.25 -6.68 1.88 -6.68 0.17 0 0.50 0.45 0.75 1 0.63 1.40 2.28 2.85 3.90 3.40 1 0.35 2.05 0.47 3.97 0.47 4.30 0 5.55 -0.57 14.15 -6.53 5.68 -3.95 8.02 -5.32 10.85 -6.40 2.10 -0.80 2.17 -0.80 6.63 -0.80 3.83 0 4.72 0.08 6 0.50 1.45 0.47 1.50 0.52 2.40 2.33 0.95 1.92 1.63 3.70 1.45 3.88 -0.05 0.05 -1.08 0.15 -2.28 0.20 l-2.20 0.08 0 1.85 0 1.83 1.70 -0.20 c0.93 -0.13 2.58 -0.20 3.67 -0.15 1.67 0.05 2.10 0.15 2.63 0.65 0.35 0.30 1.13 0.70 1.75 0.88 2.30 0.68 4.90 2.90 5.95 5.13 0.57 1.20 0.47 1.40 -1.08 2.13 -1.73 0.80 -3.03 0.70 -5.30 -0.47 -1.05 -0.55 -2.10 -0.95 -2.28 -0.88 -0.95 0.35 0.45 4.28 2.55 7.25 1.33 1.83 3.80 4.20 5.15 4.88 5.13 2.60 12.73 0.90 15.77 -3.50 1.05 -1.52 1.98 -4.05 1.98 -5.40 0 -1.95 1.17 -1.30 6.10 3.35 3.95 3.75 5.93 5.95 8.02 8.95 0.88 1.25 1.88 2.38 2.22 2.55 1.27 0.57 3.42 0.60 5.50 0.08 1.10 -0.30 2.15 -0.52 2.35 -0.52 0.90 0 6.50 5.05 9.15 8.25 2.92 3.53 4.20 5.70 5.40 9.30 0.68 1.95 0.98 6.55 0.50 7.45 -0.28 0.52 -0.40 0.55 -2.05 0.43 -1.35 -0.13 -2.28 -0.40 -3.95 -1.20 -2.30 -1.08 -3.08 -1.17 -3.20 -0.32 -0.15 1.02 0.98 3.40 2.17 4.60 1.23 1.23 2.50 1.75 4.25 1.75 l1.02 0 -0.77 1.58 c-1.63 3.22 -4.40 6.38 -7.72 8.73 -1.63 1.15 -4.10 2.50 -5.20 2.83 -0.57 0.17 -0.60 0.15 -0.50 -1.42 0.05 -0.85 0.30 -2.75 0.57 -4.20 0.70 -3.92 0.15 -4.53 -1.38 -1.50 -1.55 3.08 -4.97 6.65 -8 8.32 l-1.25 0.70 0.75 -1.20 c1.85 -3 3.70 -8.68 4.25 -13.18 0.98 -7.80 -1.58 -20.70 -5.68 -28.70 -1.05 -2.05 -1.58 -2.63 -2.10 -2.30 -0.40 0.25 -0.25 0.82 0.90 3.13 0.63 1.23 1.35 2.83 1.63 3.55 0.95 2.53 1.95 6.18 1.70 6.18 -0.15 0 -1.17 -0.28 -2.30 -0.63 -1.10 -0.32 -3.03 -0.88 -4.28 -1.20 -1.67 -0.43 -2.22 -0.68 -2.15 -0.93 0.05 -0.20 0.10 -0.80 0.10 -1.30 0.08 -1.83 -2.03 -2.92 -4.20 -2.20 -1.02 0.32 -2.63 1.63 -2.63 2.13 0 0.40 -1.35 0.63 -3.80 0.63 -1.83 0 -1.95 -0.03 -2.05 -0.55 -0.55 -2.75 -1.55 -6.43 -2 -7.28 -0.40 -0.80 -0.68 -1.05 -1.15 -1.05 -0.68 0 -0.75 0.20 -1.25 3.88 -0.17 1.17 -0.60 3.03 -0.95 4.13 l-0.68 1.98 -1.75 0.35 c-0.98 0.17 -3.45 0.65 -5.55 1.08 l-3.78 0.73 -0.98 -0.55 c-0.70 -0.43 -1.33 -0.57 -2.45 -0.57 -2.45 0.03 -3.70 1.08 -3.72 3.15 l-0.03 1 -3.25 1.20 c-1.77 0.68 -4.25 1.60 -5.47 2.10 -2.13 0.88 -2.20 0.88 -2.05 0.35 0.52 -1.83 0.93 -3.97 0.80 -4.30 -0.20 -0.55 -0.88 -0.45 -1.13 0.20 -0.13 0.30 -0.47 1.35 -0.77 2.30 -0.95 3.13 -1.42 3.70 -3.90 4.72 -1.20 0.50 -2.25 0.88 -2.35 0.85 -0.47 -0.22 1.40 -10 2.38 -12.35 0.20 -0.50 0.38 -1.17 0.38 -1.52 0 -0.50 -0.10 -0.60 -0.55 -0.52 -0.45 0.05 -0.70 0.43 -1.15 1.70 -0.98 2.75 -1.77 6.13 -2.33 9.95 -0.45 3.15 -0.52 4.43 -0.40 8.93 0.10 4.45 0.22 5.65 0.75 7.93 0.73 3.05 1.63 5.28 3.17 7.95 1.38 2.38 5.45 6.50 7.75 7.82 1.50 0.88 1.58 0.93 0.82 0.93 -1.25 0 -4.03 -0.65 -6.35 -1.50 -1.20 -0.43 -2.25 -0.75 -2.38 -0.73 -0.35 0.10 -1.75 -0.77 -3.42 -2.08 -0.82 -0.68 -1.60 -1.20 -1.73 -1.20 -0.55 0 0.35 3.78 1.30 5.40 0.50 0.90 0.35 0.93 -1.38 0.28z"/>
  <path d="M181.75 92.78 c-1.50 -0.47 -3.08 -1.40 -3.78 -2.25 l-0.75 -0.90 0.95 -0.75 c0.52 -0.40 2.03 -1.80 3.33 -3.13 1.75 -1.75 2.70 -2.95 3.60 -4.55 0.65 -1.23 1.27 -2.20 1.38 -2.20 0.73 0 1.73 1.38 7.32 9.90 0.13 0.17 -0.38 0.15 -1.50 -0.08 -0.93 -0.17 -2.28 -0.40 -2.97 -0.50 -1.23 -0.13 -1.33 -0.10 -1.33 0.38 0 0.30 0.25 1.02 0.52 1.65 0.85 1.70 0.63 1.92 -1.73 1.73 -1.88 -0.13 -2.03 -0.10 -2.28 0.40 -0.30 0.55 -1.50 0.68 -2.78 0.30z"/>
  <path d="M72.63 89.68 c-1.27 -0.43 -2.13 -0.88 -2.13 -1.15 0 -0.13 1.23 -0.25 2.70 -0.30 2.53 -0.10 2.83 -0.17 4.57 -1.02 1.02 -0.52 2.28 -1.33 2.83 -1.83 1.30 -1.23 1.77 -1.10 1.17 0.28 -0.63 1.40 -2.13 3.03 -3.38 3.65 -1.27 0.65 -4.32 0.85 -5.78 0.38z"/>
  <path d="M188.88 77.80 c-2.08 -0.10 -2.10 -0.17 -0.43 -1.83 1.63 -1.60 2.92 -3.85 2.65 -4.55 -0.20 -0.55 -0.40 -0.52 -1.40 0.08 -0.45 0.28 -0.88 0.50 -0.95 0.50 -0.08 0 -0.15 -1.05 -0.15 -2.33 -0.03 -1.25 -0.22 -3.08 -0.45 -4.05 -0.57 -2.38 -2.53 -6.30 -4.45 -8.88 -1.83 -2.47 -6.07 -6.82 -8.50 -8.73 -0.95 -0.73 -1.70 -1.40 -1.70 -1.50 0 -0.10 0.65 -0.70 1.45 -1.33 2.10 -1.63 2.88 -2.90 3 -4.85 0.10 -1.35 0 -1.80 -0.55 -2.97 -1 -2 -3.10 -3.97 -6.78 -6.32 -1.77 -1.15 -5 -3.22 -7.13 -4.60 -4.60 -2.95 -6.20 -3.80 -8.23 -4.35 -1.30 -0.38 -1.73 -0.38 -2.88 -0.13 -1.30 0.30 -3.25 1.40 -5.10 2.95 -0.82 0.65 -0.85 0.65 -1.10 0.20 -0.47 -0.88 -3.55 -3.78 -4.80 -4.50 -4.05 -2.38 -9.80 -2.80 -14.15 -1.02 -0.80 0.32 -1.52 0.55 -1.58 0.47 -0.20 -0.20 0.75 -3.05 1.40 -4.15 0.35 -0.60 1.50 -1.88 2.53 -2.85 1.77 -1.67 2.33 -2.58 1.60 -2.58 -0.17 0 -0.10 -0.15 0.15 -0.30 0.77 -0.45 6.90 -0.10 9.27 0.55 4.10 1.10 8.57 3.17 16.45 7.60 3.05 1.70 6.45 3.50 7.55 3.95 1.98 0.82 2.05 0.82 6 0.82 l4 0 1.52 -0.80 c0.82 -0.43 1.98 -1.17 2.58 -1.67 0.60 -0.50 1.30 -0.90 1.58 -0.90 0.50 0 0.50 0.13 0.40 2.72 -0.10 2.50 -0.17 2.88 -0.98 4.45 -0.47 0.93 -0.85 1.83 -0.85 1.95 0 0.15 1.05 0.32 2.38 0.40 2.35 0.15 5.50 1.10 5.93 1.80 0.10 0.15 0 0.20 -0.25 0.10 -0.55 -0.20 -5.43 0.22 -6.68 0.60 -0.55 0.17 -1.15 0.47 -1.30 0.68 -0.35 0.43 -0.40 0.38 2.55 2.28 3.83 2.42 7.40 6.05 8.80 8.90 1.35 2.70 1.58 3.78 1.55 7.38 -0.03 3.47 -0.30 4.82 -1.75 8.57 -0.40 1.05 -0.43 1.23 -0.10 1.42 0.57 0.38 0.70 0.30 1.13 -0.50 0.22 -0.40 0.50 -0.75 0.65 -0.75 0.15 0 0.90 0.38 1.67 0.82 2.90 1.67 3.97 2.03 6.80 2.13 2.17 0.08 2.88 0 4.10 -0.43 0.82 -0.30 1.75 -0.52 2.08 -0.52 l0.60 0 -0.70 1.27 c-0.88 1.60 -3.55 4.40 -5.20 5.45 -0.68 0.43 -1.90 1.02 -2.67 1.33 -0.80 0.28 -1.45 0.60 -1.45 0.70 0 0.50 1.13 0.45 3.72 -0.13 l0.85 -0.20 -0.60 1.08 c-1.05 1.90 -3.50 4.13 -5.82 5.28 -2.17 1.08 -3.88 1.42 -6.28 1.27z"/>
  <path d="M182.43 76.15 c-1.13 -0.43 -1.85 -1.02 -2.33 -1.98 -0.32 -0.60 -0.32 -0.70 0.03 -0.82 0.22 -0.10 1.13 0.08 2.03 0.38 1.17 0.38 2.25 0.52 3.88 0.52 2.58 0 2.65 0.20 0.60 1.40 -1.33 0.75 -2.95 0.95 -4.20 0.50z"/>
  <path d="M131.43 37.40 c-0.10 -0.22 -0.43 -0.40 -0.73 -0.40 -0.32 0 -1.25 -0.15 -2.10 -0.32 -1.65 -0.35 -2.20 -0.30 -1.95 0.15 0.40 0.82 -1.27 -1.40 -1.92 -2.55 -0.90 -1.60 -0.73 -1.98 0.70 -1.50 1.55 0.50 3.78 0.40 5.20 -0.28 1.60 -0.77 3.85 -3.03 4.60 -4.63 1.33 -2.83 0.38 -6.85 -1.70 -7.18 -0.30 -0.03 -0.55 -0.17 -0.52 -0.32 0.03 -0.47 4.03 -0.22 5.45 0.35 2.97 1.20 5.85 3.65 6.93 5.90 1.08 2.30 1.38 6.03 0.60 8.05 l-0.20 0.55 -1.05 -0.52 c-1.58 -0.75 -3.72 -0.70 -4.78 0.10 -0.47 0.35 -1.35 0.70 -2.08 0.80 -0.68 0.10 -2.03 0.57 -3 1.05 -2.20 1.08 -3.25 1.30 -3.45 0.75z"/>
 </g>
 <g fill="#8b4d32">
  <path d="M142.55 103.35 c-0.17 -0.20 -0.30 -0.73 -0.25 -1.17 l0.08 -0.80 1.70 -0.08 1.67 -0.08 0 0.98 c0 0.52 -0.13 1.08 -0.30 1.25 -0.43 0.43 -2.50 0.38 -2.90 -0.10z"/>
  <path d="M117.97 92.30 c-1.17 -0.98 -0.43 -3.08 1.30 -3.58 2.55 -0.77 3.92 1.85 1.83 3.50 -0.85 0.65 -2.33 0.70 -3.13 0.08z"/>
  <path d="M147.95 88.13 c-0.63 -0.82 -0.57 -1.33 0.05 -0.75 0.30 0.28 0.98 0.47 1.67 0.52 1.13 0.08 1.15 0.05 0.28 -0.13 -1.23 -0.25 -1.70 -0.68 -1.70 -1.52 0 -1.05 0.22 -1.48 1.02 -1.88 0.98 -0.52 1.88 -0.47 2.47 0.13 0.68 0.68 0.63 1.30 -0.13 2.50 -0.65 1 -0.65 1 -0.08 0.70 0.32 -0.17 0.80 -0.50 1.08 -0.70 0.40 -0.30 0.45 -0.30 0.20 0 -0.17 0.20 -0.32 0.60 -0.32 0.90 0 0.65 -0.57 0.85 -2.63 0.85 -1.30 -0.03 -1.55 -0.10 -1.92 -0.63z"/>
 </g>
 <g fill="#a1573a">
  <path d="M118.40 211.27 c-0.28 -0.30 -0.40 -0.77 -0.35 -1.33 0.08 -0.73 0.17 -0.82 0.90 -0.90 1.15 -0.13 1.55 0.30 1.55 1.60 0 1.08 -0.03 1.10 -0.82 1.10 -0.52 0 -1.02 -0.20 -1.27 -0.47z"/>
  <path d="M134.65 104.68 c-0.30 -0.22 -0.43 -0.57 -0.35 -1.17 l0.08 -0.88 2.63 -0.15 c1.75 -0.08 2.90 -0.28 3.42 -0.55 0.85 -0.45 2.85 -0.55 3.70 -0.17 0.45 0.20 0.43 0.22 -0.17 0.22 -0.70 0.03 -1.27 0.52 -0.57 0.52 0.25 0 0.32 0.13 0.22 0.28 -0.13 0.20 0.03 0.25 0.50 0.17 0.52 -0.10 0.65 -0.05 0.65 0.40 0 0.47 -0.30 0.60 -2.17 1.10 -2.55 0.65 -7.15 0.80 -7.93 0.22z"/>
 </g>
 <g fill="#bb8b68">
  <path d="M119.72 212.55 c-1.67 -1.08 -2.28 -1.92 -2.17 -3.15 0.08 -1 0.10 -1.02 1.10 -1.10 0.80 -0.05 1.20 0.08 1.75 0.52 0.40 0.32 1.20 0.90 1.80 1.27 1.05 0.65 1.08 0.70 1 1.85 l-0.08 1.17 -1.13 0.08 c-0.90 0.05 -1.35 -0.08 -2.28 -0.65z m-0.08 -1.85 c-0.08 -0.55 -0.43 -0.98 -0.68 -0.80 -0.15 0.10 -0.08 0.35 0.17 0.63 0.50 0.55 0.57 0.57 0.50 0.17z"/>
  <path d="M136.63 207.77 c-0.28 -0.13 -0.82 -0.57 -1.23 -1 -0.60 -0.63 -0.75 -1 -0.75 -1.98 l-0.03 -1.17 1.10 -0.08 c0.93 -0.08 1.20 0.03 1.88 0.68 0.43 0.40 1.10 0.88 1.48 1 0.65 0.25 0.70 0.35 0.63 1.45 l-0.08 1.20 -1.25 0.05 c-0.68 0.03 -1.48 -0.05 -1.75 -0.15z"/>
  <path d="M142.50 206.57 c0 -1.10 0.10 -1.27 1 -2.03 0.85 -0.70 1.17 -0.82 2.08 -0.75 0.98 0.08 1.05 0.13 1.13 0.90 0.15 1.42 -1.58 3.05 -3.25 3.05 l-0.95 0 0 -1.17z"/>
  <path d="M123.07 76.30 c-1.48 -1.17 -2.05 -1.52 -4.40 -2.53 -1.13 -0.47 -1.17 -0.55 -1.17 -1.52 l0 -1 2.08 0 c1.63 0 2.30 0.13 3.30 0.60 2.53 1.17 3.63 2.55 3.63 4.53 l0 1.13 -0.95 0 c-0.77 0 -1.25 -0.22 -2.47 -1.20z"/>
 </g>
 <g fill="#d5a178">
  <path d="M138.40 168.10 c-0.57 -0.55 -0.73 -1.38 -0.60 -3.20 0.13 -2.10 0.40 -2.40 2.20 -2.40 1.90 0 2.50 0.65 2.50 2.65 0 0.75 -0.10 1.35 -0.25 1.35 -0.13 0 -0.25 0.32 -0.25 0.75 0 0.47 -0.17 0.82 -0.47 1 -0.75 0.40 -2.67 0.30 -3.13 -0.15z"/>
  <path d="M141.88 132.60 c-0.35 -0.38 -0.40 -0.73 -0.22 -2.58 0.08 -1.17 0.30 -2.22 0.45 -2.33 0.15 -0.10 0.70 -0.20 1.20 -0.20 0.88 0 0.95 0.05 1.20 1 0.15 0.55 0.25 1.77 0.20 2.70 l-0.08 1.67 -1.15 0.08 c-0.85 0.05 -1.27 -0.05 -1.60 -0.35z"/>
 </g>
 <g fill="#e1ac81">
  <path d="M145.75 205.13 c0.47 -0.57 -0.40 -0.80 -1 -0.25 -0.50 0.45 -0.50 0.43 -0.50 -0.43 0 -0.60 0.20 -1.05 0.60 -1.45 0.60 -0.52 0.68 -0.55 1.75 -0.22 1.02 0.30 1.13 0.40 1 0.98 -0.28 1.27 -0.65 1.75 -1.42 1.75 -0.63 0 -0.70 -0.05 -0.43 -0.38z"/>
  <path d="M140.82 167.50 c0.57 -0.38 0.55 -0.85 -0.08 -0.68 -0.47 0.13 -0.47 0.10 0.08 -0.57 0.30 -0.38 0.63 -0.63 0.75 -0.57 0.10 0.05 0.17 -0.13 0.17 -0.43 0 -0.32 0.13 -0.50 0.32 -0.43 0.17 0.05 0.30 0.57 0.30 1.45 l0 1.35 -1 0.08 c-0.80 0.05 -0.90 0 -0.55 -0.20z"/>
  <path d="M138.23 136.73 c-0.75 -0.28 -0.98 -0.82 -0.98 -2.40 0 -1.63 0.15 -1.83 1.40 -1.83 1.08 0 1.13 -0.05 1.58 -1.05 0.50 -1.17 1.30 -1.95 1.92 -1.95 0.35 0 0.40 0.20 0.28 1.02 -0.10 0.77 -0.03 1.10 0.30 1.38 0.38 0.32 0.40 0.57 0.17 1.90 -0.35 2.13 -1.35 3.20 -2.92 3.17 -0.60 0 -1.40 -0.13 -1.75 -0.25z"/>
 </g>
 <g fill="#f8af7b">
  <path d="M114.18 101.75 c0.10 -0.38 -0.05 -0.55 -0.57 -0.75 -2.95 -1.15 -5.47 -2.65 -7.30 -4.38 -2.45 -2.30 -3.47 -3.72 -3.08 -4.22 0.75 -0.93 5.25 -1.35 8.32 -0.82 2.60 0.47 2.90 0.63 4.28 2.08 1.65 1.77 1.92 2.45 1.92 4.70 0 1.95 0 1.98 -0.98 2.92 -0.75 0.77 -1.15 0.98 -1.85 0.98 -0.75 0 -0.85 -0.08 -0.75 -0.50z"/>
  <path d="M155.85 94.47 c-1.17 -0.32 -2.28 -1.73 -2.50 -3.10 -0.52 -3.58 1.55 -7.05 4.97 -8.35 1.50 -0.55 5.43 -0.77 5.43 -0.30 0 0.45 -1.58 4.68 -2.40 6.53 -0.47 1.02 -1.33 2.55 -1.85 3.40 -0.55 0.82 -1 1.65 -1 1.80 0 0.35 -1.50 0.38 -2.65 0.03z"/>
 </g>
 <g fill="#edb78a">
  <path d="M131.25 156.05 c0 -0.90 0.17 -1.23 1.45 -2.60 0.80 -0.88 1.98 -2.28 2.63 -3.10 2.35 -3.13 3 -3.33 6.68 -2.13 1.88 0.60 2.17 0.77 2.55 1.55 0.28 0.50 0.45 1.42 0.45 2.28 0 1.90 -0.32 2.08 -3.30 1.83 l-2.22 -0.17 -1.02 0.93 c-1.48 1.35 -3.45 2.17 -5.50 2.33 l-1.70 0.13 0 -1.02z"/>
  <path d="M98.35 74.60 c0.08 -0.22 0.15 -0.80 0.15 -1.30 l0 -0.93 3.45 -1.67 c3.78 -1.83 8.82 -3.95 13.13 -5.47 2.72 -0.98 2.83 -1 3.50 -0.60 0.93 0.55 3.38 0.77 4.47 0.40 1.33 -0.43 2.05 -1.35 2.08 -2.60 0.03 -1.05 0.03 -1.05 1.25 -1.35 0.70 -0.17 3.03 -0.65 5.22 -1.05 2.53 -0.47 4.13 -0.90 4.43 -1.17 0.52 -0.47 1.65 -3.80 1.90 -5.53 0.10 -0.82 0.25 -1.08 0.55 -1.02 0.30 0.05 0.52 0.77 0.90 2.83 0.30 1.52 0.60 2.88 0.70 3.03 0.10 0.17 1.25 0.22 3.40 0.15 l3.22 -0.13 0.80 0.90 c1.05 1.20 2.13 1.40 3.58 0.70 0.60 -0.30 1.30 -0.52 1.58 -0.52 0.63 0 6.80 1.63 8.80 2.30 1.55 0.55 1.58 0.57 1.92 1.80 0.43 1.50 1.02 4.93 1.23 6.97 0.13 1.17 0.08 1.48 -0.25 1.60 -0.63 0.22 -1.52 -0.32 -2.25 -1.42 -0.57 -0.88 -0.63 -1.10 -0.38 -1.65 0.47 -1.05 0.35 -1.17 -0.77 -1.02 -0.93 0.13 -1.15 0.05 -2.05 -0.73 -2.28 -1.95 -5.15 -1.75 -8.30 0.65 l-1.38 1.02 -1.83 -0.28 c-4.50 -0.68 -13.90 -0.75 -19.27 -0.13 -3.58 0.40 -5.53 0.70 -5.75 0.88 -0.13 0.10 -1.55 0.38 -3.13 0.60 -5.70 0.85 -13.65 2.70 -16.13 3.78 -1.52 0.65 -3.83 1.38 -4.38 1.38 -0.40 0 -0.50 -0.10 -0.40 -0.40z"/>
 </g>
 <g fill="#fecb9a">
  <path d="M125.85 247.75 c-0.88 -0.35 -2.08 -1.95 -2.45 -3.33 -0.20 -0.70 -0.50 -2.60 -0.65 -4.18 -0.30 -3.40 -0.77 -4.50 -4.47 -10.75 -5.10 -8.57 -6.20 -11.70 -6.50 -18.50 -0.20 -4.50 -0.15 -4.30 -2.17 -7.38 -1.50 -2.30 -4.07 -7.25 -4.97 -9.63 -0.82 -2.17 -1.33 -4.43 -1.52 -6.93 -0.17 -2.25 -0.30 -2.38 -1.75 -1.83 -0.38 0.15 -0.73 0.22 -0.77 0.15 -0.17 -0.15 0.82 -2 1.58 -2.88 0.88 -1.05 0.65 -1.52 -0.70 -1.52 -1.27 0 -2.20 -0.22 -2.20 -0.52 0 -0.13 0.45 -0.45 0.98 -0.70 1.90 -0.98 2.65 -1.95 3.38 -4.40 0.82 -2.70 3.25 -7.82 3.83 -8.05 0.28 -0.10 0.68 0.20 1.27 0.95 3.50 4.30 9.35 7.95 16.42 10.23 5.45 1.73 5.35 1.67 6.15 3.28 1.90 3.72 1.63 10.48 -0.90 21.23 -0.65 2.75 -0.90 4.63 -1.10 7.75 -0.40 6.68 -0.52 15.27 -0.30 20.38 l0.22 4.75 1.25 3.63 c1.45 4.30 1.67 5.18 1.35 5.57 -0.13 0.17 -0.30 0.60 -0.40 0.98 -0.20 0.88 -1.42 1.55 -2.38 1.33 -0.47 -0.10 -0.80 -0.03 -1.02 0.25 -0.32 0.40 -1.30 0.47 -2.15 0.13z m-3.40 -35.80 c0.05 -0.28 -0.38 -0.73 -1.25 -1.30 -0.73 -0.50 -1.58 -1.08 -1.90 -1.30 -0.43 -0.32 -0.65 -0.35 -0.85 -0.15 -0.43 0.43 0.40 1.48 1.92 2.50 1.27 0.88 1.95 0.95 2.08 0.25z m4.82 -0.68 c0.32 -0.25 0.80 -0.82 1.05 -1.25 0.45 -0.77 0.45 -0.77 -0.10 -0.77 -0.32 0 -0.95 0.35 -1.40 0.80 -1.33 1.27 -0.95 2.33 0.45 1.23z"/>
  <path d="M133.57 239.27 c-1.77 -0.85 -2.15 -1.33 -2.67 -3.38 -0.57 -2.17 -0.75 -10.35 -0.43 -18.65 0.32 -8.15 0.65 -10.85 1.88 -16.20 1.27 -5.45 1.70 -8.95 1.60 -13.52 l-0.08 -3.85 1.60 -0.32 c2 -0.43 3.55 -1.42 6.60 -4.30 1.30 -1.20 3.42 -2.95 4.78 -3.92 3.30 -2.35 6.13 -5.43 7.93 -8.55 0.32 -0.60 0.77 -1.08 1 -1.08 0.22 0 0.73 0.70 1.25 1.80 1.17 2.47 1.98 3.50 3.45 4.45 0.70 0.47 1.27 0.93 1.27 1.02 0 0.10 -0.60 0.47 -1.35 0.85 -0.73 0.35 -1.58 0.93 -1.90 1.23 l-0.52 0.60 0.75 1.35 c1.05 1.85 1 2.08 -0.25 1.45 -0.57 -0.30 -1.10 -0.45 -1.17 -0.38 -0.10 0.10 -0.25 1.30 -0.32 2.70 -0.28 4.45 -2.05 8.65 -6.35 15.18 -1.13 1.73 -2.42 3.55 -2.85 4.10 -0.43 0.52 -0.77 1.15 -0.77 1.35 0 0.22 -0.20 0.60 -0.43 0.85 -0.38 0.43 -0.38 0.50 -0.08 0.70 0.20 0.15 0.55 0.25 0.77 0.25 0.32 0 0.38 0.25 0.30 1.45 -0.40 5.70 -2.13 10.50 -6.78 18.85 -3.83 6.90 -3.92 7.13 -3.17 9.63 0.28 0.93 0.82 1.77 1.90 2.95 1.70 1.88 1.83 2.50 0.47 2.50 -0.47 0 -0.85 0.13 -0.82 0.25 0.03 0.15 0.08 0.40 0.13 0.60 0.05 0.20 -0.22 0.47 -0.60 0.63 -0.57 0.20 -0.82 0.15 -1.45 -0.30 -0.90 -0.68 -1.15 -0.70 -1.33 -0.05 -0.17 0.68 -0.52 0.63 -2.35 -0.22z m5.38 -32.58 c0.05 -0.30 -0.15 -0.55 -0.63 -0.73 -0.38 -0.13 -1.05 -0.60 -1.50 -1.02 -0.85 -0.82 -1.70 -0.82 -1.40 -0.03 0.20 0.63 1.35 1.83 1.95 2.10 0.75 0.30 1.48 0.15 1.58 -0.32z m5.38 -0.17 c0.40 -0.25 1.17 -1.05 1.73 -1.80 0.82 -1.13 0.93 -1.38 0.57 -1.42 -0.47 -0.10 -3.38 2.78 -3.38 3.35 0 0.47 0.22 0.45 1.08 -0.13z"/>
  <path d="M129.13 176.75 c-5.20 -0.70 -11.38 -3.40 -15.60 -6.85 -2.08 -1.70 -4.28 -4.20 -4.28 -4.85 0 -0.93 3.25 -5.53 5.88 -8.25 l1.50 -1.60 -0.10 -2.78 c-0.05 -1.55 -0.10 -3.20 -0.13 -3.67 -0.03 -0.85 0 -0.88 0.85 -0.85 0.47 0 2.03 0.25 3.42 0.55 3.30 0.73 5.75 0.70 9.20 -0.08 1.52 -0.35 3.65 -0.80 4.75 -1.02 4.07 -0.82 10.32 -2.40 12.70 -3.25 1.35 -0.47 2.65 -0.85 2.92 -0.85 0.43 0 0.45 0.35 0.55 4.95 l0.08 4.93 1.42 2.88 c0.80 1.58 1.60 3.63 1.83 4.55 l0.38 1.70 -0.77 1.55 c-3.05 6.03 -8.38 10.65 -14.02 12.20 -3.40 0.90 -7.22 1.17 -10.57 0.75z m11.98 -9.52 c1.35 -1.05 0.55 -3.97 -1.10 -3.97 -0.85 0 -1.23 0.43 -1.42 1.60 -0.17 1.05 0.05 1.98 0.57 2.50 0.52 0.55 1.15 0.50 1.95 -0.13z m-5.70 -11.82 c0.70 -0.32 1.75 -1.02 2.33 -1.52 l1.05 -0.95 2.30 0.15 c1.30 0.08 2.50 0.03 2.75 -0.10 0.55 -0.32 0.55 -1.38 -0.03 -2.45 -0.38 -0.77 -0.68 -0.95 -2.67 -1.58 -2.20 -0.73 -2.22 -0.73 -2.88 -0.25 -0.35 0.25 -1.17 1.17 -1.88 2.05 -0.68 0.88 -1.95 2.38 -2.80 3.33 -0.88 0.95 -1.58 1.83 -1.58 1.98 0 0.40 1.90 0.03 3.40 -0.65z"/>
  <path d="M103.60 166.38 c0.08 -3.67 0.22 -5.05 0.77 -7.50 1.13 -5 1.10 -5.32 -0.35 -10.88 -0.68 -2.67 -1.42 -5.95 -1.65 -7.25 -0.47 -3.08 -0.50 -9.27 0 -11.63 1.05 -4.90 4.20 -8.15 11.57 -11.85 1.67 -0.82 3.28 -1.52 3.55 -1.52 0.65 0 1.17 1.30 1.52 3.60 0.13 0.98 0.55 3.40 0.95 5.40 0.40 2 1.02 5.35 1.40 7.45 l0.70 3.80 -0.63 0.95 c-0.93 1.45 -2.20 3.97 -3.05 6.03 -0.82 2.03 -0.82 2.03 -1.73 2.03 -1.13 0 -1.45 -0.55 -2.20 -3.65 -0.93 -3.80 -1.05 -4.10 -1.88 -4.10 -0.57 0 -0.65 0.08 -0.52 0.70 0.35 1.63 1.17 5.07 1.65 6.80 0.73 2.58 1.27 6.03 1.27 8.10 l0 1.70 -1.38 1.50 c-2.80 3 -6.95 8.82 -8.80 12.30 l-1.35 2.53 0.13 -4.50z"/>
  <path d="M152.52 147.38 c-0.03 -0.55 -0.10 -2.10 -0.20 -3.42 -0.13 -2.08 -0.10 -2.45 0.22 -2.45 0.22 0 0.70 0.73 1.17 1.77 0.93 2.10 0.93 2.22 0.28 2.22 -0.32 0 -0.52 0.22 -0.63 0.70 -0.10 0.38 -0.30 1.02 -0.50 1.42 l-0.35 0.75 0 -1z"/>
  <path d="M131.88 143.60 c-0.65 -1.10 -2.13 -2.75 -4.32 -4.88 l-3.33 -3.20 -0.63 -3.50 c-0.32 -1.92 -0.95 -5.07 -1.35 -7 -1.08 -5.07 -1.05 -5.20 0.90 -4.35 0.55 0.22 1.88 0.65 2.97 0.95 l2 0.55 0.30 1.30 c0.43 1.95 0.82 2.80 1.50 3.05 0.75 0.28 2.05 -0.22 3.42 -1.33 1.45 -1.17 2.92 -1.42 6.22 -1.08 1.45 0.17 1.75 0.13 2.20 -0.28 0.73 -0.65 0.50 -2.03 -0.68 -4.43 l-0.93 -1.88 0.57 -1.33 c0.45 -1.08 0.52 -1.63 0.43 -2.97 -0.05 -0.90 -0.32 -2.05 -0.57 -2.58 -0.65 -1.33 -0.30 -1.55 2.22 -1.52 3.90 0.05 8.15 2 10.07 4.63 0.50 0.70 1.20 2.13 1.55 3.17 1.02 3.13 0.85 8.57 -0.45 14.75 l-0.28 1.27 -1.48 -1.48 c-1.38 -1.33 -1.58 -1.67 -2.50 -4.28 -1.33 -3.72 -2.70 -6.45 -4.30 -8.60 -1.40 -1.85 -2 -2.20 -2.42 -1.42 -0.22 0.43 -0.10 0.73 0.57 1.75 1.20 1.73 2.75 4.90 4.07 8.27 1.02 2.60 1.10 2.97 0.82 3.65 -0.88 2.20 -3.30 9.65 -3.42 10.57 -0.08 0.57 -0.25 1.13 -0.35 1.20 -0.52 0.30 -10.80 2.60 -11.68 2.60 -0.10 0 -0.63 -0.75 -1.17 -1.65z m9.25 -8.20 c0.63 -0.68 0.85 -1.17 0.98 -2.25 0.17 -1.30 0.22 -1.38 0.68 -1.13 0.80 0.43 1.23 0.10 1.23 -0.95 0 -0.90 -0.43 -2.83 -0.63 -2.83 -0.55 0 -0.88 0.43 -0.88 1.15 0 0.57 -0.17 1 -0.52 1.30 -0.30 0.22 -0.73 0.90 -1 1.50 -0.45 1 -0.50 1.05 -1.58 1.05 -0.90 0 -1.15 0.10 -1.27 0.50 -0.30 0.90 0.10 1.95 0.82 2.22 1.08 0.38 1.33 0.32 2.17 -0.57z"/>
  <path d="M128.13 112.85 c-2.05 -0.43 -3.63 -0.95 -3.55 -1.20 0.05 -0.17 1.48 -0.32 4.07 -0.43 2.17 -0.08 4.68 -0.25 5.55 -0.35 1.35 -0.17 1.55 -0.13 1.55 0.22 0 0.68 -0.90 1.33 -2.22 1.63 -1.25 0.28 -4.35 0.32 -5.40 0.13z"/>
  <path d="M123.20 109.47 c-5.05 -0.40 -12.23 -2.20 -16.40 -4.15 -1.38 -0.65 -3.47 -3 -3.08 -3.40 0.13 -0.13 1.10 -0.03 2.17 0.22 3.55 0.77 8.35 0.45 8.35 -0.57 0 -0.25 0.15 -0.32 0.40 -0.22 0.28 0.10 0.73 -0.17 1.38 -0.82 0.85 -0.85 0.98 -1.10 0.98 -2.15 0 -1.52 -0.52 -2.63 -1.90 -3.88 -0.60 -0.55 -1 -1 -0.90 -1 0.10 -0.03 -0.10 -0.17 -0.45 -0.38 -0.55 -0.30 -0.57 -0.35 -0.17 -0.52 0.63 -0.22 2.22 0.03 3.08 0.47 0.40 0.22 0.98 0.52 1.27 0.70 1.45 0.77 4.25 -0.57 5.45 -2.63 1.20 -2.08 1.73 -7.45 1.02 -10.45 -0.35 -1.40 -0.32 -1.42 0.13 -1.17 0.40 0.20 0.47 0.15 0.47 -0.22 0 -0.80 -1.35 -2.40 -2.85 -3.40 -2.45 -1.63 -3.53 -1.98 -6.22 -2.10 -2.33 -0.10 -2.53 -0.08 -4 0.65 -0.85 0.43 -2.13 1.27 -2.80 1.88 -1.73 1.52 -4.25 3.13 -5.43 3.45 -1.08 0.28 -1.05 0.17 -0.52 2.40 0.08 0.38 -0.05 0.65 -0.52 0.93 -0.35 0.22 -0.95 0.57 -1.33 0.82 l-0.68 0.40 1.73 1.60 c1.83 1.67 6.28 4.82 6.82 4.82 0.15 0 0.30 -0.10 0.30 -0.20 0 -0.10 -0.15 -0.35 -0.30 -0.52 -0.60 -0.57 1.10 0 2.35 0.82 0.77 0.50 1.17 0.95 1.17 1.30 0.03 0.52 0 0.52 -1.90 0.20 -3.10 -0.55 -7.05 0.15 -6.88 1.23 0.13 0.77 -0.20 0.45 -1.30 -1.25 -2.53 -3.92 -3.88 -8.73 -4.25 -15.32 -0.13 -2.03 0.03 -3.20 0.38 -2.97 0.13 0.08 2.63 -0.73 3.60 -1.15 2.40 -1.05 10.38 -2.92 16.13 -3.78 1.58 -0.22 3 -0.50 3.13 -0.60 0.15 -0.10 1.15 -0.30 2.25 -0.45 7.97 -1.10 19.67 -1.17 25.30 -0.15 l0.80 0.15 -1.27 1.67 c-1.45 1.85 -2.35 3.67 -2.58 5.15 -0.17 1.05 -0.10 1.02 0.82 -0.30 0.17 -0.25 0.28 -0.32 0.20 -0.20 -0.05 0.15 -0.35 1.45 -0.65 2.92 -0.52 2.55 -0.52 2.78 -0.17 4.63 0.22 1.08 0.47 2.53 0.57 3.20 0.25 1.80 1.35 2.88 2.97 2.88 1.52 0 1.83 -0.20 4.45 -2.72 1.63 -1.60 2.42 -2.60 3.08 -3.88 0.93 -1.88 2 -3 1.70 -1.80 -0.43 1.73 1.48 -0.35 3.53 -3.83 0.82 -1.38 1.35 -2.03 1.65 -2.03 0.40 0 0.47 0.20 0.47 1.45 0 1.80 -0.43 5.30 -0.82 6.93 l-0.32 1.23 -1.50 -0.08 c-3.55 -0.15 -7 2.40 -7.85 5.80 -0.60 2.33 0.80 4.47 3.13 4.80 0.88 0.15 1.13 0.28 1.13 0.65 0 0.65 0.77 0.60 2.50 -0.17 0.80 -0.35 1.70 -0.60 2.03 -0.55 1.02 0.15 -2.95 3.80 -7.13 6.57 -5.45 3.63 -10.25 5.88 -15.77 7.45 -6.05 1.70 -10.52 2.15 -16.92 1.65z m18.92 -5.85 c2.13 -0.60 3.17 -1.17 2.80 -1.52 -0.22 -0.25 -3.05 0.25 -4.30 0.75 -0.63 0.22 -1.83 0.38 -3.17 0.40 -1.20 0 -2.22 0.10 -2.33 0.22 -0.57 0.95 3.78 1.05 7 0.15z m4.05 -8.18 c1.55 -1.70 1.25 -2.58 -0.85 -2.40 -1.25 0.10 -2.33 0.70 -2.33 1.27 0 0.43 1.55 1.67 2.10 1.67 0.32 0 0.80 -0.25 1.08 -0.55z m-20.42 -19.08 c0 -1.90 -3.50 -4.38 -6.18 -4.38 -0.75 0 -1.33 0.13 -1.33 0.25 0 0.15 0.52 0.50 1.17 0.77 2.35 1 2.92 1.35 4.40 2.53 1.63 1.27 1.92 1.42 1.92 0.82z"/>
  <path d="M163.05 71.60 c-0.75 -0.52 -0.70 -1 0.08 -0.50 0.90 0.60 1.13 0.50 1.15 -0.52 l0.03 -0.95 0.25 0.85 c0.40 1.45 -0.28 2 -1.50 1.13z"/>
 </g>
 <g fill="#fffefb">
  <path d="M129.90 123.95 c-0.20 -0.73 -0.45 -1.70 -0.52 -2.17 l-0.17 -0.85 1.33 0.17 c2.08 0.28 2.72 0.73 2.72 1.95 0 0.52 -0.25 0.88 -1.05 1.45 -1.50 1.10 -1.88 1 -2.30 -0.55z"/>
  <path d="M134.40 122.60 c-0.35 -0.93 -0.17 -1.30 0.73 -1.40 1 -0.13 1.38 0.15 1.38 0.95 0 0.82 -1.80 1.23 -2.10 0.45z"/>
  <path d="M138.32 122.75 c-0.38 -0.15 -0.52 -0.38 -0.43 -0.63 0.10 -0.22 -0.08 -0.65 -0.38 -0.98 l-0.55 -0.57 0.98 -0.80 c0.55 -0.43 1.13 -0.77 1.25 -0.77 0.30 0 1.80 3.05 1.80 3.63 0 0.43 -1.73 0.50 -2.67 0.13z"/>
  <path d="M115.07 93.50 c-3.90 -1.15 -5.45 -2.33 -6.93 -5.28 -1.20 -2.38 -1.23 -3.75 -0.13 -5.97 0.45 -0.85 1.42 -2.20 2.20 -3 3.83 -3.90 8.05 -3.97 13.57 -0.22 1.23 0.85 1.42 1.10 1.60 2.03 0.55 3.15 -0.15 8.02 -1.40 9.50 l-0.50 0.57 0.43 -1 c0.32 -0.75 0.43 -1.75 0.45 -4.15 0 -3 -0.03 -3.20 -0.75 -4.60 -1.02 -2 -1.98 -2.63 -4.03 -2.63 -1.33 0 -1.67 0.10 -2.33 0.65 -1.83 1.52 -2.70 4.38 -2.45 7.95 0.20 2.67 0.93 4.60 2.17 5.75 l1 0.90 -0.68 -0.03 c-0.40 0 -1.40 -0.22 -2.25 -0.47z"/>
  <path d="M153.10 86.28 c1.55 -2.45 2.67 -7.47 2.17 -9.77 -0.65 -3 -1.55 -3.90 -3.72 -3.67 -1.63 0.17 -2.42 0.82 -3.33 2.70 l-0.57 1.27 0.68 0.50 c1.08 0.80 0.80 1.80 -0.55 2 -0.85 0.10 -1.10 1.23 -0.98 4.15 0.05 1.25 0.03 2.30 -0.08 2.30 -0.32 0 -0.98 -2.03 -1.27 -3.90 -0.47 -3 -0.03 -5.07 1.58 -7.47 3 -4.55 5.65 -6.20 8.63 -5.40 1.25 0.32 2.70 1.80 3.20 3.22 0.98 2.75 0.73 6.97 -0.60 9.77 -1.13 2.35 -3.38 4.57 -5.20 5.15 l-0.57 0.17 0.63 -1.02z"/>
 </g>
</svg>